<?xml version="1.0" encoding="UTF-8"?>
<svg version="1.1" xmlns="http://www.w3.org/2000/svg" width="1024" height="1024">
<path d="M0 0 C337.92 0 675.84 0 1024 0 C1024 337.92 1024 675.84 1024 1024 C686.08 1024 348.16 1024 0 1024 C0 686.08 0 348.16 0 0 Z " fill="#021F13" transform="translate(0,0)"/>
<path d="M0 0 C3.15559051 2.94521781 4.59691298 4.77191016 5.09666443 9.06755066 C5.09286792 17.85032151 3.78715343 26.301331 2.28515625 34.92578125 C2.01733571 36.50732577 1.75043158 38.0890257 1.484375 39.67086792 C0.91869971 43.02328989 0.34710144 46.37462274 -0.22946167 49.72518921 C-1.13527875 54.98941972 -2.02800341 60.25581566 -2.91821289 65.52270508 C-3.81796623 70.84328822 -4.71823516 76.16377704 -5.62303162 81.48350525 C-7.99850985 95.45463448 -10.30549498 109.43583371 -12.57525635 123.42456055 C-15.17610881 139.45299606 -17.82301032 155.47092859 -20.60305786 171.46923828 C-23.06204074 185.64497741 -25.32093177 199.85143412 -27.57855225 214.0604248 C-29.79657326 228.01487551 -32.06074063 241.95984579 -34.40496826 255.89364624 C-38.2100664 278.51102899 -41.87010594 301.15089934 -45.50363541 323.79636765 C-45.93125031 326.46105498 -46.35919424 329.12568929 -46.78720093 331.79031372 C-50.93316055 357.58509828 -50.93316055 357.58509828 -54.90789795 383.40670776 C-55.76251905 389.04831348 -56.71842828 394.65960483 -57.78045654 400.26608276 C-58.27539934 403.13439835 -58.5588292 405.72863228 -58.1875 408.625 C-54.44754909 411.1183006 -51.52813333 410.9051409 -47.19921875 410.8984375 C-45.54206447 410.91539269 -43.88491927 410.93325338 -42.2277832 410.9519043 C-41.35546051 410.95894379 -40.48313782 410.96598328 -39.5843811 410.97323608 C-21.85445135 411.14837658 -4.74023475 412.43779745 12.77941895 415.29632568 C14.96862927 415.65024035 17.15932954 415.99346076 19.35058594 416.33447266 C34.50728268 418.69352678 49.64487708 421.12260014 64.69750977 424.08154297 C72.59641542 425.61865304 80.52060902 427.00112972 88.4538269 428.34814453 C89.98548151 428.60909794 91.51670118 428.87262195 93.0473938 429.13916016 C113.42179235 432.67922433 133.489378 433.97822752 154.16894531 433.94067383 C157.80824515 433.93750371 161.44673665 433.96111709 165.0859375 433.98632812 C183.75055004 434.03589405 201.73707537 432.4532279 219.8125 427.625 C220.56966309 427.43067383 221.32682617 427.23634766 222.10693359 427.03613281 C234.95743875 423.71747311 246.90262358 419.47991441 258.8125 413.625 C259.78195557 413.15755371 259.78195557 413.15755371 260.77099609 412.68066406 C276.88962607 404.8391684 291.18771828 394.31477416 303.8125 381.625 C304.31587891 381.12419922 304.81925781 380.62339844 305.33789062 380.10742188 C317.83943706 367.54168265 327.59687442 353.02270833 335.87353516 337.39746094 C336.70779711 335.82264507 337.56152084 334.25817366 338.41796875 332.6953125 C357.27519792 297.00307713 365.06116046 253.61297312 365 213.5625 C364.99939575 212.83100739 364.9987915 212.09951477 364.99816895 211.34585571 C364.97347958 200.32882776 364.6822672 189.50227659 362.8125 178.625 C362.67827637 177.82352539 362.54405273 177.02205078 362.40576172 176.19628906 C356.40404936 141.30261257 340.89185098 110.16333383 311.5703125 89.3203125 C300.09398435 81.46453187 287.86257136 76.32278126 274.5625 72.375 C273.79091553 72.14079346 273.01933105 71.90658691 272.22436523 71.6652832 C255.20660227 66.89182038 238.1227808 66.20583018 220.5625 66.4375 C218.53386431 66.45260272 216.50521751 66.46628105 214.4765625 66.47851562 C209.58825816 66.5110129 204.7005086 66.56247299 199.8125 66.625 C198.44619842 70.50516755 197.41064392 74.25168608 196.71459961 78.30444336 C196.52354141 79.40953751 196.33248322 80.51463165 196.13563538 81.6532135 C195.93489914 82.84917648 195.7341629 84.04513947 195.52734375 85.27734375 C195.31150131 86.54714584 195.09565887 87.81694794 194.87327576 89.12522888 C192.43548845 103.56480325 190.25647239 118.04485445 188.07727051 132.52523804 C186.87929847 140.4843018 185.66933463 148.44154558 184.45703125 156.3984375 C184.33934261 157.1711392 184.22165398 157.9438409 184.10039902 158.73995781 C182.13834038 171.61004536 180.07300625 184.45892868 177.88354492 197.29223633 C175.8666137 209.13504585 174.02154455 221.00262556 172.1875 232.875 C159.79306136 312.92784725 159.79306136 312.92784725 138.8125 335.625 C138.22726562 336.27855469 137.64203125 336.93210937 137.0390625 337.60546875 C123.93174749 351.54352908 104.58605464 359.08587671 85.671875 360.0078125 C83.51072986 360.06147525 81.34917318 360.10056511 79.1875 360.125 C78.1557666 360.14353027 77.1240332 360.16206055 76.06103516 360.18115234 C70.03035377 360.13067397 66.37828265 359.69021512 61.8125 355.625 C56.30796967 344.61593933 63.03789696 324.62973177 65 313.25 C65.58937535 309.77275859 66.17546408 306.2949744 66.76123047 302.81712341 C67.16207167 300.43728317 67.56395063 298.05761751 67.96679688 295.67811584 C70.00319284 283.60750564 71.88198111 271.51331361 73.75657749 259.41679668 C75.21889225 249.98999751 76.7081164 240.56743073 78.1953125 231.14453125 C78.41861048 229.72927375 78.41861048 229.72927375 78.64641953 228.28542519 C79.58095399 222.36241304 80.51599415 216.43948086 81.45129776 210.51659012 C81.94503079 207.38980793 82.438636 204.26300559 82.93222046 201.13619995 C87.35792946 173.10186579 91.80638299 145.07129068 96.28720093 117.04571533 C98.73980976 101.70360362 101.17479943 86.35895315 103.5703125 71.0078125 C103.68387022 70.28019903 103.79742794 69.55258556 103.9144268 68.8029232 C105.1017355 61.19344613 106.28580604 53.58347408 107.46606445 45.97290039 C108.2156724 41.14004048 108.97333111 36.30855861 109.73779297 31.47802734 C110.46799526 26.86233742 111.16573023 22.24318472 111.84423828 17.61962891 C112.17830153 15.42995052 112.51275518 13.24033165 112.84765625 11.05078125 C112.98739365 10.05161179 113.12713104 9.05244232 113.27110291 8.022995 C113.48700829 6.64516594 113.48700829 6.64516594 113.70727539 5.23950195 C113.8248671 4.4407515 113.9424588 3.64200104 114.06361389 2.81904602 C115.06436437 -0.11289862 116.43826967 -1.39967956 118.8125 -3.375 C121.23553276 -3.87557125 121.23553276 -3.87557125 123.98898315 -3.87620544 C125.03655289 -3.88603958 126.08412262 -3.89587372 127.16343689 -3.90600586 C128.30816971 -3.89633789 129.45290253 -3.88666992 130.63232422 -3.87670898 C132.44823311 -3.88481346 132.44823311 -3.88481346 134.30082703 -3.89308167 C137.62723818 -3.90346048 140.95265718 -3.8958323 144.27898169 -3.87937045 C147.78967984 -3.86545564 151.30034984 -3.87199039 154.81106567 -3.87550354 C160.73447873 -3.87820987 166.6576898 -3.86472566 172.58105469 -3.84155273 C179.34710446 -3.81525939 186.11280982 -3.81309092 192.87889278 -3.8249411 C199.44945752 -3.83590521 206.01990244 -3.82936892 212.59045792 -3.81538582 C215.35119724 -3.80975177 218.11184513 -3.80960647 220.8725853 -3.81445122 C285.27166243 -3.86366997 348.75054604 8.8447848 398.8125 51.625 C399.64265625 52.33140625 400.4728125 53.0378125 401.328125 53.765625 C418.7560287 69.00133956 431.95076594 87.29428301 442.8125 107.625 C443.3691333 108.66213135 443.3691333 108.66213135 443.93701172 109.72021484 C454.54733053 129.85976419 460.26139506 152.25062782 463.8125 174.625 C463.99796387 175.78 464.18342773 176.935 464.37451172 178.125 C466.06385227 189.90366707 466.20963961 201.61524827 466.1875 213.5 C466.18728851 214.55003204 466.18707703 215.60006409 466.18685913 216.68191528 C466.03559007 292.34153525 442.08501763 369.35725699 388.8125 424.625 C388.22919922 425.23021484 387.64589844 425.83542969 387.04492188 426.45898438 C379.36728356 434.37679907 371.60951655 441.93975011 362.8125 448.625 C362.27222168 449.04168945 361.73194336 449.45837891 361.17529297 449.88769531 C310.76592092 488.63804523 244.66784367 511.57849079 181.0703125 511.828125 C179.87643921 511.83513931 178.68256592 511.84215363 177.45251465 511.84938049 C173.61413779 511.86681718 169.77591502 511.87323396 165.9375 511.875 C164.62916199 511.87567474 163.32082397 511.87634949 161.97283936 511.87704468 C143.38898514 511.8617795 125.19278112 511.5892766 106.8125 508.625 C105.76513672 508.46402832 104.71777344 508.30305664 103.63867188 508.13720703 C76.2059946 503.84414975 48.88495877 497.78536922 21.875 491.375 C8.61036377 488.24939416 -4.72771892 485.75206385 -18.1875 483.625 C-19.20134766 483.45838867 -20.21519531 483.29177734 -21.25976562 483.12011719 C-37.42031702 480.55756094 -53.54900274 480.31616709 -69.875 480.25 C-70.89919037 480.24205414 -71.92338074 480.23410828 -72.97860718 480.22592163 C-93.77302816 480.10202261 -113.94239352 482.38830386 -134.25 486.8125 C-136.76035872 487.35400012 -139.27204693 487.88938118 -141.78515625 488.41796875 C-142.85258057 488.6502417 -143.92000488 488.88251465 -145.01977539 489.12182617 C-149.58494395 489.84697549 -153.64113844 490.29274704 -157.9375 488.4375 C-160.70027608 486.21193038 -161.86868757 484.95673666 -163.1875 481.625 C-163.91927751 473.62471027 -162.6038491 465.86604898 -161.1953125 458.01315308 C-160.4969821 454.11271281 -159.83244373 450.20644537 -159.1640625 446.30078125 C-159.01253723 445.41910782 -158.86101196 444.53743439 -158.70489502 443.62904358 C-157.33187433 435.58938495 -156.0445911 427.53678073 -154.7734375 419.48046875 C-154.66879873 418.81735498 -154.56415997 418.15424122 -154.45635033 417.4710331 C-153.91808225 414.05806296 -153.38069616 410.64495454 -152.84371948 407.23178101 C-147.12896326 370.91245695 -147.12896326 370.91245695 -144.25 354.5625 C-141.19015837 337.14080004 -138.48576844 319.66233863 -135.75 302.1875 C-135.62966148 301.41902992 -135.50932297 300.65055984 -135.38533783 299.8588028 C-134.19447971 292.25360374 -133.00504819 284.64818206 -131.81648827 277.04262352 C-130.01347476 265.50587319 -128.20432364 253.97011209 -126.375 242.4375 C-126.16629272 241.12135712 -126.16629272 241.12135712 -125.95336914 239.77862549 C-124.02859878 227.6641434 -121.9975692 215.57134559 -119.88775635 203.48782349 C-117.6958965 190.91376957 -115.71598349 178.31052826 -113.76412964 165.69720459 C-111.00382631 147.86066747 -108.10728693 130.06851703 -104.83666992 112.31835938 C-103.17945046 103.29802102 -101.61764895 94.26786992 -100.1484375 85.21484375 C-99.97463562 84.14885452 -99.80083374 83.0828653 -99.62176514 81.98457336 C-98.77466991 76.78354727 -97.93706875 71.58129689 -97.11523438 66.3762207 C-95.64326928 57.21009578 -93.99000264 48.16308497 -91.64453125 39.17578125 C-91.4478183 38.42041077 -91.25110535 37.66504028 -91.0484314 36.88677979 C-87.3679016 23.41850288 -80.95767476 12.17069134 -68.92578125 4.5625 C-60.95347377 0.27727313 -53.10720198 -2.02353 -44.1875 -3.375 C-43.36121094 -3.50519531 -42.53492188 -3.63539063 -41.68359375 -3.76953125 C-29.51763783 -5.31343428 -10.58162787 -7.06166131 0 0 Z " fill="#00B67D" transform="translate(344.1875,253.375)"/>
<path d="M0 0 C0.90776184 -0.00988449 1.81552368 -0.01976898 2.75079346 -0.029953 C41.24555321 -0.36179026 80.69853771 2.76196926 111.15625 29.23828125 C112.984375 31.50390625 112.984375 31.50390625 114.15625 33.23828125 C111.25347049 31.88365081 108.81074099 30.32389073 106.28125 28.36328125 C100.03279106 23.61950635 93.54975579 19.02516209 86.15625 16.23828125 C85.16625 16.56828125 84.17625 16.89828125 83.15625 17.23828125 C82.82625 16.24828125 82.49625 15.25828125 82.15625 14.23828125 C79.66264601 13.24310295 79.66264601 13.24310295 76.71875 12.61328125 C71.25751582 11.28891416 71.25751582 11.28891416 69.15625 10.23828125 C68.16625 10.56828125 67.17625 10.89828125 66.15625 11.23828125 C66.15625 10.24828125 66.15625 9.25828125 66.15625 8.23828125 C63.84625 8.23828125 61.53625 8.23828125 59.15625 8.23828125 C59.15625 7.57828125 59.15625 6.91828125 59.15625 6.23828125 C53.95147617 5.42864977 48.76365176 4.9251978 43.51171875 4.51953125 C41.15625 4.23828125 41.15625 4.23828125 39.15625 3.23828125 C35.01121339 2.99041108 35.01121339 2.99041108 31.15625 4.23828125 C31.15625 3.57828125 31.15625 2.91828125 31.15625 2.23828125 C18.61625 2.23828125 6.07625 2.23828125 -6.84375 2.23828125 C-8.63006431 7.52975563 -8.63006431 7.52975563 -9.34375 12.73828125 C-9.59850111 15.52201606 -9.9437542 17.51476345 -10.90625 20.17578125 C-12.0465895 23.90089029 -11.90873084 27.10382728 -11.71875 30.96875 C-11.84375 33.23828125 -11.84375 33.23828125 -13.84375 36.23828125 C-13.84375 37.18703125 -13.84375 38.13578125 -13.84375 39.11328125 C-13.84375 42.37627334 -14.60758236 44.27147891 -15.84375 47.23828125 C-15.51375 47.89828125 -15.18375 48.55828125 -14.84375 49.23828125 C-15.11328125 51.26953125 -15.11328125 51.26953125 -15.65625 53.73828125 C-15.84832031 54.64191406 -16.04039062 55.54554688 -16.23828125 56.4765625 C-16.43808594 57.38792969 -16.63789062 58.29929687 -16.84375 59.23828125 C-18.38438939 66.32992669 -19.41825441 73.41472516 -20.33984375 80.61328125 C-20.87806228 84.48511691 -21.60096221 88.28155368 -22.40234375 92.10546875 C-23.32867726 96.58138111 -23.89049494 100.86270396 -23.78125 105.42578125 C-23.84048315 109.0390036 -24.10089569 110.26517683 -25.84375 113.23828125 C-27.10892027 118.29896232 -27.90263721 123.70613113 -27.78125 128.92578125 C-27.84375 131.23828125 -27.84375 131.23828125 -28.8125 133.54296875 C-29.89333676 136.36788301 -30.20574455 138.66819956 -30.40625 141.67578125 C-30.7008127 145.58399705 -31.16772562 149.3752848 -31.84375 153.23828125 C-31.84375 154.22828125 -31.84375 155.21828125 -31.84375 156.23828125 C-32.153125 157.14578125 -32.4625 158.05328125 -32.78125 158.98828125 C-34.49028461 164.21591652 -34.90103204 169.63605691 -35.54101562 175.08398438 C-36.20882009 180.72503182 -36.98482074 186.24888114 -38.34375 191.76953125 C-39.04540227 195.23393936 -39.43271501 198.73024802 -39.84375 202.23828125 C-40.52782754 208.01022692 -41.412899 213.60493082 -42.84375 219.23828125 C-43.16666016 220.65173828 -43.16666016 220.65173828 -43.49609375 222.09375 C-44.88557162 228.01968535 -46.59806754 233.51764652 -49.07421875 239.08203125 C-50.06783015 241.48458524 -50.06783015 241.48458524 -49.84375 245.23828125 C-50.50375 245.23828125 -51.16375 245.23828125 -51.84375 245.23828125 C-51.84375 246.55828125 -51.84375 247.87828125 -51.84375 249.23828125 C-53.32875 250.22828125 -53.32875 250.22828125 -54.84375 251.23828125 C-56.05659876 254.29257198 -56.05659876 254.29257198 -56.84375 257.23828125 C-57.50375 257.23828125 -58.16375 257.23828125 -58.84375 257.23828125 C-58.93140625 257.79644531 -59.0190625 258.35460937 -59.109375 258.9296875 C-61.92674113 267.78640761 -71.67934092 275.66596308 -78.84375 281.23828125 C-79.50375 281.23828125 -80.16375 281.23828125 -80.84375 281.23828125 C-79.46842585 278.03840647 -78.00029689 276.32355364 -75.28125 274.17578125 C-65.17032418 265.50927341 -59.14505694 255.22933266 -53.84375 243.23828125 C-53.56402344 242.61888672 -53.28429687 241.99949219 -52.99609375 241.36132812 C-49.34133141 233.10721511 -47.16085406 224.74132786 -45.43359375 215.89453125 C-45.2189447 214.80624527 -45.00429565 213.71795929 -44.78314209 212.59669495 C-42.60947945 201.36622168 -40.8389654 190.08109463 -39.13549805 178.77124023 C-38.18065639 172.43417262 -37.20614144 166.10011533 -36.234375 159.765625 C-36.03602051 158.46950287 -35.83766602 157.17338074 -35.63330078 155.83798218 C-33.60705196 142.62666264 -31.48093189 129.43202818 -29.34375 116.23828125 C-25.77466447 94.18516586 -22.31812931 72.11600049 -18.9375 50.03320312 C-17.26728132 39.15297364 -15.55689306 28.28099021 -13.70703125 17.4296875 C-13.5491362 16.48649155 -13.39124115 15.54329559 -13.2285614 14.57151794 C-10.71825437 0.0926404 -10.71825437 0.0926404 0 0 Z " fill="#025A37" transform="translate(552.84375,318.76171875)"/>
<path d="M0 0 C0.66 0 1.32 0 2 0 C0.1854644 13.80820727 -1.83194232 27.56877048 -4.07382202 41.31381226 C-7.89508487 64.76232964 -11.52490852 88.23908162 -15.10910416 111.72472382 C-17.35321631 126.42568569 -19.6465424 141.11694584 -22.02694702 155.79647827 C-23.72354031 166.26321392 -25.39254939 176.73415232 -27.05078125 187.20703125 C-27.24751875 188.44928215 -27.24751875 188.44928215 -27.44823074 189.71662903 C-28.12452772 193.98728107 -28.80050859 198.25798305 -29.47628784 202.52871704 C-30.90723468 211.57145554 -32.34026032 220.61386476 -33.7734375 229.65625 C-33.91446585 230.54607889 -34.05549419 231.43590778 -34.20079613 232.35270119 C-36.44384663 246.50419419 -38.69285728 260.65471415 -40.95639038 274.802948 C-41.43074355 277.77023546 -41.90358728 280.73776046 -42.3762207 283.70532227 C-43.67442663 291.8414393 -44.98666991 299.97423929 -46.36647034 308.0969696 C-46.94753494 311.51815077 -47.52142121 314.94052351 -48.0954895 318.36288452 C-48.4801042 320.63258999 -48.87709834 322.89985605 -49.27514648 325.16723633 C-51.55813954 338.04083234 -51.55813954 338.04083234 -51 351 C-49.12321929 353.2982366 -47.64480952 354.67759524 -45 356 C-24.15549619 357.88865214 -6.14052516 354.17839421 12 344 C12.66 343.67 13.32 343.34 14 343 C12.54875366 346.82601307 10.64225296 348.22329124 7 350 C6.01 350 5.02 350 4 350 C4 350.66 4 351.32 4 352 C1.86521743 352.71159419 -0.26978093 353.42238404 -2.40625 354.12890625 C-4.1199102 354.70442767 -5.82848671 355.29534017 -7.53125 355.90234375 C-8.72234375 356.32193359 -8.72234375 356.32193359 -9.9375 356.75 C-10.66839844 357.01296875 -11.39929688 357.2759375 -12.15234375 357.546875 C-14 358 -14 358 -16 357 C-16.33 357.66 -16.66 358.32 -17 359 C-20.96 358.67 -24.92 358.34 -29 358 C-29 358.66 -29 359.32 -29 360 C-31.04136395 360.05451714 -33.08315856 360.09302485 -35.125 360.125 C-36.26195312 360.14820313 -37.39890625 360.17140625 -38.5703125 360.1953125 C-43.48505677 359.91542957 -46.8619245 358.92634052 -50.6875 355.8125 C-53.43078534 352.47607188 -54.7441627 350.1368758 -56 346 C-55.1875 343.5625 -55.1875 343.5625 -54 341 C-54 338.98948846 -54.00235145 336.97847472 -54.05859375 334.96875 C-53.97352737 332.1105195 -52.93338151 329.69033495 -52 327 C-51.52618678 324.0126654 -51.2681469 321.01186431 -51 318 C-50.81379443 316.14570289 -50.62631246 314.29153348 -50.4375 312.4375 C-50.29116422 310.95838296 -50.14514409 309.47923446 -50 308 C-49.34 308 -48.68 308 -48 308 C-47.93941406 306.83082031 -47.87882812 305.66164063 -47.81640625 304.45703125 C-47.73195966 302.90884386 -47.64731375 301.36066732 -47.5625 299.8125 C-47.52318359 299.04357422 -47.48386719 298.27464844 -47.44335938 297.48242188 C-47.14636888 292.15943842 -46.3763291 287.26215277 -44.9375 282.125 C-43.95765452 278.3072317 -43.83627164 274.92948054 -44 271 C-43.34 271 -42.68 271 -42 271 C-41.93941406 269.92621094 -41.87882812 268.85242188 -41.81640625 267.74609375 C-41.73192349 266.30988685 -41.64727946 264.87368942 -41.5625 263.4375 C-41.52318359 262.73302734 -41.48386719 262.02855469 -41.44335938 261.30273438 C-41.09492223 255.48651437 -40.61921079 249.73070262 -38.9375 244.125 C-37.77552239 239.73530682 -37.81198375 235.51239006 -38 231 C-37.34 231 -36.68 231 -36 231 C-36.02835937 230.04351562 -36.05671875 229.08703125 -36.0859375 228.1015625 C-36.08359635 223.44970234 -35.36966199 218.95753532 -34.625 214.375 C-34.49867188 213.54226563 -34.37234375 212.70953125 -34.2421875 211.8515625 C-33.57419562 207.65657347 -32.82097377 203.87946586 -31 200 C-31.66 199.67 -32.32 199.34 -33 199 C-32.7834375 198.41992188 -32.566875 197.83984375 -32.34375 197.2421875 C-30.68628496 192.59207724 -29.88953923 188.97073481 -30 184 C-29.35902703 181.99161804 -28.69100553 179.99172182 -28 178 C-26.96314552 171.68316345 -26.41087733 165.31206174 -25.83789062 158.93945312 C-25.3877896 154.36159636 -24.67624856 150.32738645 -23 146 C-23.66 146 -24.32 146 -25 146 C-24.25 141.25 -24.25 141.25 -22 139 C-21.57354771 136.1404923 -21.57354771 136.1404923 -21.4375 132.9375 C-21.09722222 127.09722222 -21.09722222 127.09722222 -20 126 C-18.54596519 119.2069311 -17.77763473 112.33416729 -17.21875 105.41796875 C-16.96218843 102.58204711 -16.50287149 99.8017126 -16 97 C-16 96.34 -16 95.68 -16 95 C-15.34 95 -14.68 95 -14 95 C-13.96261719 94.1028125 -13.92523438 93.205625 -13.88671875 92.28125 C-13.478983 84.54226558 -12.58021322 77.17874606 -11.01855469 69.58886719 C-10.2860412 65.91902916 -9.83936289 62.49147722 -9.9375 58.75 C-10 55 -10 55 -9.00390625 53.05078125 C-7.81768731 50.62757135 -7.85529608 49.1100006 -8 46.4375 C-8.19570838 42.81077903 -8.13823604 42.20735406 -6 39 C-5.56261304 37.28555111 -5.19151312 35.55332216 -4.875 33.8125 C-4.70742188 32.91144531 -4.53984375 32.01039063 -4.3671875 31.08203125 C-4.18542969 30.05142578 -4.18542969 30.05142578 -4 29 C-4.66 29 -5.32 29 -6 29 C-6 28.34 -6 27.68 -6 27 C-5.34 27 -4.68 27 -4 27 C-3.90912109 25.96552734 -3.90912109 25.96552734 -3.81640625 24.91015625 C-3.64199515 22.95406865 -3.46338149 20.99835261 -3.28125 19.04296875 C-3.10442477 17.12981798 -2.93644752 15.21580782 -2.78125 13.30078125 C-2.59117546 11.19299039 -2.30402471 9.09439243 -2 7 C-1.34 6.67 -0.68 6.34 0 6 C-0.185625 5.195625 -0.37125 4.39125 -0.5625 3.5625 C-0.706875 2.716875 -0.85125 1.87125 -1 1 C-0.67 0.67 -0.34 0.34 0 0 Z " fill="#025634" transform="translate(457,256)"/>
<path d="M0 0 C2.15341979 2.15341979 2.64111965 3.03923709 3 6 C2.34 6.99 1.68 7.98 1 9 C0.57547864 12.0293648 0.57547864 12.0293648 0.4375 15.375 C0.21303025 19.36048329 -0.19920307 23.09447397 -1 27 C-1.03824623 29.33301986 -1.04574284 31.66711508 -1 34 C-1.99 34 -2.98 34 -4 34 C-3.95875 34.969375 -3.9175 35.93875 -3.875 36.9375 C-3.85651067 41.44889724 -4.89482578 45.64837652 -6 50 C-5.01 50.495 -5.01 50.495 -4 51 C-4.33 51.5775 -4.66 52.155 -5 52.75 C-6.27075898 55.19883862 -6.27075898 55.19883862 -6 59 C-6.41525714 61.42233331 -6.94887305 63.7962226 -7.546875 66.1796875 C-7.83304687 67.35917969 -7.83304687 67.35917969 -8.125 68.5625 C-8.40730469 69.67818359 -8.40730469 69.67818359 -8.6953125 70.81640625 C-9.14243108 72.98355713 -9.14243108 72.98355713 -8.46875 74.98046875 C-7.84922516 77.64958827 -8.48240964 79.17868465 -9.375 81.75 C-10.41314903 84.9443047 -11.22183681 87.90764421 -11.5625 91.25 C-12 95 -12 95 -13 97.8125 C-14.20631682 101.65763486 -14.47540115 105.30934312 -14.75390625 109.31640625 C-14.99491464 111.94454539 -15.46934968 114.41646887 -16 117 C-16.52301207 120.60388003 -17.01171453 124.21157769 -17.5 127.8203125 C-18 131 -18 131 -19 134 C-18.67 134.99 -18.34 135.98 -18 137 C-18.59375 139.015625 -18.59375 139.015625 -19.5 141.25 C-21.10187911 145.6787246 -21.06506449 148.44926989 -20 153 C-20.66 153 -21.32 153 -22 153 C-22.36368892 154.60203467 -22.71561952 156.20674203 -23.0625 157.8125 C-23.25972656 158.70582031 -23.45695312 159.59914063 -23.66015625 160.51953125 C-24.20349463 163.12630779 -24.20349463 163.12630779 -23 166 C-23.99 166.99 -23.99 166.99 -25 168 C-25.42815702 170.72355495 -25.42815702 170.72355495 -25.5625 173.8125 C-25.7954385 177.63934685 -26.1728457 181.25536347 -27 185 C-27.165 185.886875 -27.33 186.77375 -27.5 187.6875 C-28 190 -28 190 -29 192 C-29.18238929 194.01786245 -29.3215752 196.03973057 -29.4375 198.0625 C-29.76154553 202.69533844 -30.3437223 206.97756675 -31.45703125 211.47265625 C-32.96163921 218.47611919 -34 225.84393771 -34 233 C-34.309375 233.7425 -34.61875 234.485 -34.9375 235.25 C-37.01187586 240.6189728 -37.14249447 246.3002213 -37 252 C-37.66 252 -38.32 252 -39 252 C-38.96519531 253.13888672 -38.96519531 253.13888672 -38.9296875 254.30078125 C-38.91164063 255.29464844 -38.89359375 256.28851562 -38.875 257.3125 C-38.85179687 258.29863281 -38.82859375 259.28476562 -38.8046875 260.30078125 C-39 263 -39 263 -41 266 C-41.66 266 -42.32 266 -43 266 C-41.77866244 254.96327431 -40.29893243 244.00793481 -38.49609375 233.05078125 C-38.25423732 231.56379484 -38.01268932 230.07675823 -37.77142334 228.5896759 C-37.13045831 224.64520014 -36.48479967 220.70150685 -35.83806992 216.75797272 C-35.29705033 213.45505706 -34.75895659 210.15166731 -34.22083759 206.84827805 C-30.74328486 185.5030258 -27.21288811 164.16677856 -23.6362915 142.83789062 C-21.1214673 127.84059801 -18.68060492 112.833645 -16.3125 97.8125 C-14.07176511 83.6002809 -11.73989221 69.40866296 -9.28198242 55.23242188 C-7.17922807 43.10077162 -5.14446023 30.95827958 -3.125 18.8125 C-2.88885986 17.39272858 -2.88885986 17.39272858 -2.64794922 15.9442749 C-1.76418118 10.62970189 -0.88156348 5.31493912 0 0 Z " fill="#025937" transform="translate(338,332)"/>
<path d="M0 0 C-1.40833126 4.22499377 -4.40250687 5.23727163 -8.125 7.25 C-8.8463916 7.64550049 -9.5677832 8.04100098 -10.31103516 8.44848633 C-33.96108523 21.26517103 -58.45379022 28.21903006 -85 32 C-85.99676758 32.17345947 -86.99353516 32.34691895 -88.02050781 32.52563477 C-93.30400879 33.27400738 -98.62304255 33.1817648 -103.94921875 33.203125 C-105.10618759 33.21027527 -106.26315643 33.21742554 -107.45518494 33.22479248 C-155.31794032 33.45309086 -155.31794032 33.45309086 -176 30 C-176.79631836 29.86897888 -177.59263672 29.73795776 -178.41308594 29.60296631 C-192.96695089 27.20733916 -207.48635392 24.62683193 -222 22 C-228.01994328 20.91167253 -234.0402933 19.82574088 -240.0625 18.75 C-241.08376984 18.56726028 -241.08376984 18.56726028 -242.12567139 18.38082886 C-255.26426811 16.03957896 -268.44124996 14.16934783 -281.67382812 12.44335938 C-287.45540508 11.67270878 -293.22753594 10.83580243 -299 10 C-299 9.67 -299 9.34 -299 9 C-296.31243045 8.97279176 -293.62514202 8.9530612 -290.9375 8.9375 C-290.18533203 8.92912109 -289.43316406 8.92074219 -288.65820312 8.91210938 C-284.00174318 8.89195154 -279.61334766 9.28501623 -275 10 C-273.7625 9.979375 -272.525 9.95875 -271.25 9.9375 C-268 10 -268 10 -265 12 C-262.26127045 12.45772063 -262.26127045 12.45772063 -259.3125 12.625 C-258.31863281 12.69976563 -257.32476562 12.77453125 -256.30078125 12.8515625 C-255.54152344 12.90054688 -254.78226562 12.94953125 -254 13 C-254 13.66 -254 14.32 -254 15 C-252.71802734 14.98259766 -252.71802734 14.98259766 -251.41015625 14.96484375 C-250.30542969 14.95582031 -249.20070313 14.94679688 -248.0625 14.9375 C-246.96035156 14.92589844 -245.85820312 14.91429687 -244.72265625 14.90234375 C-242 15 -242 15 -241 16 C-239.4218848 16.21041536 -237.83664622 16.36856185 -236.25 16.5 C-231.55254213 16.93309895 -227.30181066 17.56606311 -222.8125 19.0625 C-218.12343566 20.21554861 -213.79945249 20.17382323 -209 20 C-209 20.66 -209 21.32 -209 22 C-208.32195312 22.04898438 -207.64390625 22.09796875 -206.9453125 22.1484375 C-201.34199855 22.59856521 -195.96840466 23.34570947 -190.4765625 24.53125 C-187.91849689 25.01542646 -185.40588329 25.28062014 -182.8125 25.5 C-179.78279605 25.75915042 -177.44698768 26.16787874 -174.5 27.0625 C-169.94395264 28.28286983 -165.68608607 28.1697174 -161 28 C-161 28.66 -161 29.32 -161 30 C-160.0925 29.814375 -159.185 29.62875 -158.25 29.4375 C-155.13773819 29.01854168 -153.90937135 29.21548871 -151 30 C-142.06207658 31.29788275 -133.01749549 31.15397484 -124.0090332 31.13037109 C-121.54307052 31.12495734 -119.07728567 31.13037388 -116.61132812 31.13671875 C-115.03385377 31.13605881 -113.45637952 31.13477939 -111.87890625 31.1328125 C-111.14660294 31.13483673 -110.41429962 31.13686096 -109.6598053 31.13894653 C-106.27652414 31.12337635 -103.24814506 30.95533678 -100 30 C-96.98573382 29.93366127 -93.98678997 30.00153143 -90.97265625 30.0625 C-88.1444549 30.00303716 -85.75561642 29.60084869 -83 29 C-80.46071772 28.62912402 -77.91877809 28.27616868 -75.375 27.9375 C-74.37339844 27.80118164 -74.37339844 27.80118164 -73.3515625 27.66210938 C-70.54030589 27.28821225 -67.83977402 27 -65 27 C-64.67 26.01 -64.34 25.02 -64 24 C-62.80375 24.04125 -61.6075 24.0825 -60.375 24.125 C-56.55385518 24.13850228 -53.60204727 23.30983537 -50 22 C-48.68 22 -47.36 22 -46 22 C-45.67 21.34 -45.34 20.68 -45 20 C-44.01 20.33 -43.02 20.66 -42 21 C-42 20.34 -42 19.68 -42 19 C-40.02 19 -38.04 19 -36 19 C-36 18.34 -36 17.68 -36 17 C-35.071875 16.71125 -34.14375 16.4225 -33.1875 16.125 C-29.90208333 15.1125 -29.90208333 15.1125 -27 13 C-24.3125 12.875 -24.3125 12.875 -22 13 C-22 12.34 -22 11.68 -22 11 C-20.68 11 -19.36 11 -18 11 C-18 10.34 -18 9.68 -18 9 C-16.73308493 8.32591692 -15.46129251 7.66099503 -14.1875 7 C-13.47980469 6.62875 -12.77210938 6.2575 -12.04296875 5.875 C-10 5 -10 5 -7 5 C-7 4.34 -7 3.68 -7 3 C-6.01 3 -5.02 3 -4 3 C-4 2.34 -4 1.68 -4 1 C-2 0 -2 0 0 0 Z " fill="#025331" transform="translate(622,655)"/>
<path d="M0 0 C23.75360474 21.5267043 32.11579355 58.32459738 34 89 C34.18250511 94.22983578 34.24416589 99.45513279 34.25 104.6875 C34.25133942 105.40488342 34.25267883 106.12226685 34.25405884 106.86138916 C34.24899103 119.49070674 33.30007303 131.80833953 31.40136719 144.30566406 C31.03255109 146.78148794 30.71402354 149.25724707 30.4140625 151.7421875 C27.10435168 177.52294672 18.50544609 202.77456833 7 226 C6.70399902 226.60666504 6.40799805 227.21333008 6.10302734 227.83837891 C-0.30088216 240.85723978 -8.45930835 254.87460765 -19 265 C-19.66 265 -20.32 265 -21 265 C-20.67 264.01 -20.34 263.02 -20 262 C-19.34 262 -18.68 262 -18 262 C-18 261.01 -18 260.02 -18 259 C-16.70896357 257.6256709 -15.3743291 256.29103643 -14 255 C-13.505 254.01 -13.505 254.01 -13 253 C-12.34 253 -11.68 253 -11 253 C-10.731875 252.443125 -10.46375 251.88625 -10.1875 251.3125 C-9 249 -9 249 -7.5625 246.6875 C-5.86946588 243.91349328 -5.86946588 243.91349328 -4.5 240.375 C-3 237 -3 237 -1.59375 235.65234375 C0.56261088 233.4167049 1.6515728 230.97916568 3 228.1875 C3.495 227.17042969 3.99 226.15335938 4.5 225.10546875 C4.995 224.08066406 5.49 223.05585937 6 222 C6.50402344 221.01515625 7.00804687 220.0303125 7.52734375 219.015625 C11.10936084 211.68056614 13.97659421 203.90967719 16 196 C16.66 196 17.32 196 18 196 C17.938125 195.360625 17.87625 194.72125 17.8125 194.0625 C18.03688067 190.39761571 19.09736915 187.42159888 20.34375 183.98828125 C21.10447598 182.03242647 21.10447598 182.03242647 21 180 C21.66 180 22.32 180 23 180 C23.04898438 179.443125 23.09796875 178.88625 23.1484375 178.3125 C23.58181322 173.88907886 24.29284638 169.80122995 25.46484375 165.50390625 C26.35885594 161.32097331 26.77271377 157.06175727 27.21459961 152.81030273 C27.67801763 148.64055566 28.53122411 144.92897551 30 141 C29.34 141 28.68 141 28 141 C28.495 137.04 28.495 137.04 29 133 C29.66 133 30.32 133 31 133 C31.02539701 126.13151847 31.04288668 119.26304909 31.05493164 112.39453125 C31.05995412 110.05891467 31.06677332 107.72330122 31.07543945 105.38769531 C31.0875963 102.02668483 31.09324924 98.66571599 31.09765625 95.3046875 C31.10281754 94.26384003 31.10797882 93.22299255 31.11329651 92.15060425 C31.11367102 87.28858314 30.85590404 82.79829397 30 78 C30.33 77.34 30.66 76.68 31 76 C30.34 76 29.68 76 29 76 C28.67 74.35 28.34 72.7 28 71 C28.66 71 29.32 71 30 71 C30 69.68 30 68.36 30 67 C29.34 67 28.68 67 28 67 C27.89042969 66.20078125 27.78085937 65.4015625 27.66796875 64.578125 C26.56047845 56.90672875 25.0220049 49.48141811 23 42 C22.34 42 21.68 42 21 42 C20.87625 41.484375 20.7525 40.96875 20.625 40.4375 C19.03673035 33.91635639 19.03673035 33.91635639 16 28 C15.731875 27.278125 15.46375 26.55625 15.1875 25.8125 C13.83474305 22.60860197 12.10585564 19.84610511 10.23046875 16.92578125 C9.23758452 15.37183863 8.29754184 13.78420703 7.375 12.1875 C6.1163472 10.00516703 6.1163472 10.00516703 4.5 8.5 C2.54407459 6.54407459 1.30731671 4.42787389 0 2 C0 1.34 0 0.68 0 0 Z " fill="#01603C" transform="translate(676,361)"/>
<path d="M0 0 C0.69867188 0.15597656 1.39734375 0.31195313 2.1171875 0.47265625 C3.02726562 0.66730469 3.93734375 0.86195313 4.875 1.0625 C6.23238281 1.35833984 6.23238281 1.35833984 7.6171875 1.66015625 C10.01014125 2.23202157 10.01014125 2.23202157 12 1 C14.33479468 1.3229386 16.66794484 1.6578388 19 2 C21.17220035 2.01469488 23.34540197 1.97272686 25.515625 1.87890625 C26.75199707 1.83040527 27.98836914 1.7819043 29.26220703 1.73193359 C30.57817871 1.67602051 31.89415039 1.62010742 33.25 1.5625 C36.06490766 1.45635044 38.88004438 1.35779584 41.6953125 1.26171875 C42.75593399 1.22543365 42.75593399 1.22543365 43.83798218 1.18841553 C54.89305539 0.82395731 65.94100384 0.85403939 77 1 C77.712771 1.00860046 78.42554199 1.01720093 79.15991211 1.02606201 C115.24860536 1.47228258 115.24860536 1.47228258 132.97509766 4.6484375 C139.12683621 6.06754219 139.12683621 6.06754219 145 5 C148 6 148 6 151 7 C152.82906152 7.35602832 154.66298674 7.68758278 156.5 8 C160.48792022 8.6855088 164.20211621 9.56296289 168 11 C168 11.66 168 12.32 168 13 C167.35530762 12.87882812 166.71061523 12.75765625 166.04638672 12.6328125 C158.75837917 11.28294111 151.45481289 10.09861364 144.125 9 C143.0628125 8.835 142.000625 8.67 140.90625 8.5 C120.88290953 5.49884358 101.05658303 4.67417493 80.82187438 4.59528303 C77.26249576 4.5793778 73.70319616 4.55267925 70.14387512 4.5272522 C63.44036227 4.48093905 56.73683372 4.4439695 50.03324538 4.41057932 C42.38593776 4.3720169 34.73871043 4.32269941 27.09147108 4.27259517 C11.39437254 4.16998364 -4.30277151 4.0804992 -20 4 C-19.67 3.34 -19.34 2.68 -19 2 C-14.45339643 0.81950204 -10.71702487 1.14092426 -6.125 1.9375 C-4.97257812 2.13214844 -3.82015625 2.32679688 -2.6328125 2.52734375 C-1.76398438 2.68332031 -0.89515625 2.83929688 0 3 C0 2.01 0 1.02 0 0 Z " fill="#014C2D" transform="translate(483,246)"/>
<path d="M0 0 C1.32 0.66 2.64 1.32 4 2 C3.195625 2.721875 2.39125 3.44375 1.5625 4.1875 C-1.16181419 6.69227788 -1.16181419 6.69227788 -1.5 9.5 C-2.2193895 13.09694749 -4.37996465 14.50182676 -7 17 C-8.36363208 18.97946592 -9.69418644 20.9819245 -11 23 C-12.55881396 25.07054582 -14.13763519 27.1234963 -15.73046875 29.16796875 C-17.18271812 31.08077837 -17.18271812 31.08077837 -18 34 C-19.62890625 35.53515625 -19.62890625 35.53515625 -21.5625 37.0625 C-23.4710222 38.52753465 -23.4710222 38.52753465 -25 40 C-25 40.66 -25 41.32 -25 42 C-26.74160234 43.63497363 -28.59809594 45.07785392 -30.46875 46.5625 C-31.22671875 47.2740625 -31.22671875 47.2740625 -32 48 C-32 48.66 -32 49.32 -32 50 C-32.763125 50.45375 -33.52625 50.9075 -34.3125 51.375 C-37.08662029 53.05237506 -38.12700056 54.42462577 -40 57 C-41.66099189 58.34039603 -43.32913346 59.67193352 -45 61 C-46.20366715 62.04811997 -47.40116803 63.10334656 -48.59375 64.1640625 C-49.55087891 65.01097656 -49.55087891 65.01097656 -50.52734375 65.875 C-51.84633356 67.04511374 -53.16142918 68.21963138 -54.47265625 69.3984375 C-57.87432513 72.39465494 -60.65867811 74.5018815 -65 76 C-66.22527948 77.95021083 -66.22527948 77.95021083 -67 80 C-67.99 80.99 -67.99 80.99 -69 82 C-69.33 80.68 -69.66 79.36 -70 78 C-68.47632813 76.78376953 -68.47632813 76.78376953 -66.921875 75.54296875 C-58.32638236 68.64580447 -49.95856253 61.63191456 -42 54 C-41.44070801 53.46793945 -40.88141602 52.93587891 -40.30517578 52.38769531 C-31.70247637 44.1623281 -24.06153172 35.57667066 -17 26 C-16.56171875 25.41186523 -16.1234375 24.82373047 -15.671875 24.21777344 C-9.88691577 16.42934671 -4.700654 8.4985334 0 0 Z " fill="#024A2B" transform="translate(768,630)"/>
<path d="M0 0 C0.33 0 0.66 0 1 0 C1.47375063 30.20160251 -9.73690597 61.22649799 -23 88 C-23.29600098 88.60666504 -23.59200195 89.21333008 -23.89697266 89.83837891 C-30.30088216 102.85723978 -38.45930835 116.87460765 -49 127 C-49.66 127 -50.32 127 -51 127 C-50.67 126.01 -50.34 125.02 -50 124 C-49.34 124 -48.68 124 -48 124 C-48 123.01 -48 122.02 -48 121 C-46.70896357 119.6256709 -45.3743291 118.29103643 -44 117 C-43.505 116.01 -43.505 116.01 -43 115 C-42.34 115 -41.68 115 -41 115 C-40.731875 114.443125 -40.46375 113.88625 -40.1875 113.3125 C-39 111 -39 111 -37.5625 108.6875 C-35.86946588 105.91349328 -35.86946588 105.91349328 -34.5 102.375 C-33 99 -33 99 -31.59375 97.65234375 C-29.43738912 95.4167049 -28.3484272 92.97916568 -27 90.1875 C-26.505 89.17042969 -26.01 88.15335938 -25.5 87.10546875 C-25.005 86.08066406 -24.51 85.05585937 -24 84 C-23.49597656 83.01515625 -22.99195313 82.0303125 -22.47265625 81.015625 C-18.89063916 73.68056614 -16.02340579 65.90967719 -14 58 C-13.34 58 -12.68 58 -12 58 C-12.061875 57.360625 -12.12375 56.72125 -12.1875 56.0625 C-11.96311933 52.39761571 -10.90263085 49.42159888 -9.65625 45.98828125 C-8.89552402 44.03242647 -8.89552402 44.03242647 -9 42 C-8.34 42 -7.68 42 -7 42 C-6.95101562 41.443125 -6.90203125 40.88625 -6.8515625 40.3125 C-6.41782065 35.88534181 -5.70142751 31.79443258 -4.53515625 27.4921875 C-3.64683076 23.35531407 -3.24256525 19.1500093 -2.75463867 14.95092773 C-2.14792431 9.85776771 -1.24300781 4.97203122 0 0 Z " fill="#015634" transform="translate(706,499)"/>
<path d="M0 0 C4.13610516 7.38109823 3.14059994 16.78271439 3 25 C2.67 25 2.34 25 2 25 C1.67 26.65 1.34 28.3 1 30 C1.66 30.33 2.32 30.66 3 31 C3.02706445 33.89589652 3.04687029 36.79153795 3.0625 39.6875 C3.07087891 40.50412109 3.07925781 41.32074219 3.08789062 42.16210938 C3.10452243 46.27016623 2.93384617 49.9810028 2 54 C1.80685253 55.87245743 1.6416645 57.74794541 1.5 59.625 C1.4175 60.67171875 1.335 61.7184375 1.25 62.796875 C1.1675 63.85390625 1.085 64.9109375 1 66 C-0.18074866 80.24278075 -0.18074866 80.24278075 -2 87 C-2.66 86.67 -3.32 86.34 -4 86 C-3.565332 79.62868218 -3.04590462 73.30969282 -2.23680115 66.974823 C-0.58752133 53.45874214 -0.81128942 39.96889309 -0.9375 26.375 C-0.96514585 22.7324788 -0.98976705 19.08999543 -1.00868225 15.44741821 C-1.02092874 13.20045341 -1.03852195 10.95351007 -1.06199646 8.70663452 C-1.06852737 7.70693634 -1.07505829 6.70723816 -1.08178711 5.67724609 C-1.09004013 4.79523529 -1.09829315 3.91322449 -1.10679626 3.00448608 C-1 1 -1 1 0 0 Z " fill="#02492B" transform="translate(810,438)"/>
<path d="M0 0 C0.69867188 0.15597656 1.39734375 0.31195313 2.1171875 0.47265625 C3.02726562 0.66730469 3.93734375 0.86195313 4.875 1.0625 C6.23238281 1.35833984 6.23238281 1.35833984 7.6171875 1.66015625 C10.01014125 2.23202157 10.01014125 2.23202157 12 1 C14.33396414 1.32888743 16.66719139 1.66301405 19 2 C21.48856429 2.01485361 23.97796863 1.97177711 26.46484375 1.87890625 C27.14301651 1.85529526 27.82118927 1.83168427 28.51991272 1.80735779 C30.65936691 1.73155017 32.7983804 1.647177 34.9375 1.5625 C36.39906788 1.50919595 37.86065645 1.45645633 39.32226562 1.40429688 C42.88177298 1.27604979 46.44093817 1.14012555 50 1 C50 1.66 50 2.32 50 3 C64.19 3 78.38 3 93 3 C93 3.33 93 3.66 93 4 C55.71 4 18.42 4 -20 4 C-19.67 3.34 -19.34 2.68 -19 2 C-14.45339643 0.81950204 -10.71702487 1.14092426 -6.125 1.9375 C-4.97257812 2.13214844 -3.82015625 2.32679688 -2.6328125 2.52734375 C-1.76398438 2.68332031 -0.89515625 2.83929688 0 3 C0 2.01 0 1.02 0 0 Z " fill="#025635" transform="translate(483,246)"/>
<path d="M0 0 C0.99 0 1.98 0 3 0 C3.6875 2.75 3.6875 2.75 4 6 C3.525625 6.61875 3.05125 7.2375 2.5625 7.875 C0.14942853 11.1567772 0.79978069 13.99561371 1 18 C0.34 18 -0.32 18 -1 18 C-0.97679687 18.64066406 -0.95359375 19.28132813 -0.9296875 19.94140625 C-0.81531308 25.42320879 -1.43402005 29.71481767 -3 35 C-3.04237975 36.35350335 -3.04093906 37.70895231 -3 39.0625 C-3 42.93821848 -3.79318289 45.37954868 -5 49 C-4.7215625 50.299375 -4.7215625 50.299375 -4.4375 51.625 C-4 54 -4 54 -5.3125 56.3125 C-5.869375 56.869375 -6.42625 57.42625 -7 58 C-7.66 58 -8.32 58 -9 58 C-7.64345036 45.0465532 -5.61911642 32.26409873 -3.375 19.4375 C-3.04645889 17.53978553 -2.71833163 15.64199937 -2.390625 13.74414062 C-1.59849932 9.1619232 -0.80084647 4.58070097 0 0 Z " fill="#025331" transform="translate(348,272)"/>
<path d="M0 0 C0.99 0.33 1.98 0.66 3 1 C2.67 2.32 2.34 3.64 2 5 C1.67 8.96 1.34 12.92 1 17 C12.22 17 23.44 17 35 17 C35 17.66 35 18.32 35 19 C30.61289464 21.19355268 24.70043634 20.22710273 19.82421875 20.24023438 C17.64023646 20.24993234 15.45719855 20.28095131 13.2734375 20.3125 C11.88281808 20.31903108 10.49219194 20.32428114 9.1015625 20.328125 C7.83650879 20.3374707 6.57145508 20.34681641 5.26806641 20.35644531 C1.80469844 19.97869862 0.36147325 19.53232825 -2 17 C-2.20703125 13.75 -2.20703125 13.75 -1.8125 10 C-1.63654297 8.14375 -1.63654297 8.14375 -1.45703125 6.25 C-1 3 -1 3 0 0 Z " fill="#00643D" transform="translate(287,645)"/>
<path d="M0 0 C0.66 0.66 1.32 1.32 2 2 C1.74724346 5.05773761 1.36842657 7.97848626 0.875 11 C0.73537842 11.91031982 0.59575684 12.82063965 0.4519043 13.75854492 C0.14479065 15.75302628 -0.16739929 17.74673069 -0.48388672 19.73974609 C-1.03428798 23.21659494 -1.56755303 26.69578202 -2.09765625 30.17578125 C-3.05479218 36.45213834 -4.02367392 42.7266015 -5 49 C-7.80390987 46.19609013 -7.66520791 43.88358829 -8 40 C-7.625 38 -7.625 38 -7 36 C-6.855625 34.845 -6.71125 33.69 -6.5625 32.5 C-6 29 -6 29 -4.9375 27.0625 C-3.43706344 23.76153958 -3.88013704 20.59588883 -4 17 C-3.34 17 -2.68 17 -2 17 C-2.04125 15.865625 -2.0825 14.73125 -2.125 13.5625 C-2.14183841 8.85616438 -1.17621777 4.53683996 0 0 Z " fill="#02492A" transform="translate(215,503)"/>
<path d="M0 0 C0.8098938 -0.0033284 1.6197876 -0.0066568 2.45422363 -0.01008606 C4.16560295 -0.01514584 5.87699212 -0.01749468 7.58837891 -0.01733398 C10.20882342 -0.01952296 12.82884858 -0.03769523 15.44921875 -0.05664062 C17.11197773 -0.05957422 18.7747387 -0.06155924 20.4375 -0.0625 C21.22193481 -0.06968552 22.00636963 -0.07687103 22.8145752 -0.08427429 C26.6503974 -0.06812697 28.45029829 -0.01099906 31.71875 2.16796875 C23.36640488 4.40734788 15.43395761 4.28957733 6.84375 3.91796875 C5.53921875 3.87800781 4.2346875 3.83804688 2.890625 3.796875 C-7.6015565 3.39665777 -7.6015565 3.39665777 -11.28125 1.16796875 C-7.49763222 -0.09323718 -3.94241158 0.00559283 0 0 Z " fill="#055E3D" transform="translate(499.28125,764.83203125)"/>
<path d="M0 0 C1.43617424 0.20069031 2.87237374 0.40119997 4.30859375 0.6015625 C5.09347168 0.71532227 5.87834961 0.82908203 6.68701172 0.94628906 C11.47334943 1.63018186 16.26850747 2.24751203 21.0625 2.875 C22.47450684 3.06485474 22.47450684 3.06485474 23.91503906 3.25854492 C30.34834745 4.11193149 36.783008 4.77208066 43.25 5.3125 C43.25 6.3025 43.25 7.2925 43.25 8.3125 C36.66283512 8.56107226 30.7006247 7.57958699 24.25 6.3125 C19.65358652 5.27239605 19.65358652 5.27239605 15.25 6.3125 C15.25 5.6525 15.25 4.9925 15.25 4.3125 C14.32380859 4.36470703 14.32380859 4.36470703 13.37890625 4.41796875 C7.06455703 4.61979726 2.09551745 3.68459404 -3.75 1.3125 C-4.08 1.9725 -4.41 2.6325 -4.75 3.3125 C-7.225 2.3225 -7.225 2.3225 -9.75 1.3125 C-5.89299963 -1.25883358 -4.52969468 -0.66253833 0 0 Z " fill="#024628" transform="translate(436.75,758.6875)"/>
<path d="M0 0 C9.67093107 -0.43737879 19.07471006 0.29636972 28.6875 1.375 C29.81454346 1.50108643 30.94158691 1.62717285 32.1027832 1.75708008 C39.44397246 2.61561414 46.72142362 3.7164661 54 5 C53.34 5.33 52.68 5.66 52 6 C51.67 6.99 51.34 7.98 51 9 C50.34 8.67 49.68 8.34 49 8 C49.33 7.34 49.66 6.68 50 6 C49.07380859 6.03480469 49.07380859 6.03480469 48.12890625 6.0703125 C43.88450643 6.16075633 40.04221569 6.14288162 35.9375 5 C30.69747146 3.64773457 25.48400313 3.89288557 20.11499023 4.07421875 C15.60707553 4.18185809 12.20746554 3.55742627 8 2 C5.66787973 1.92477031 3.3314689 1.90674124 1 2 C0.67 1.34 0.34 0.68 0 0 Z " fill="#024A2A" transform="translate(284,733)"/>
<path d="M0 0 C1.32 1.32 2.64 2.64 4 4 C3.690625 4.556875 3.38125 5.11375 3.0625 5.6875 C0.8917501 10.41207332 0.94035118 13.93723343 2 19 C1.34 19 0.68 19 0 19 C-0.33951619 20.56116819 -0.67132544 22.12401338 -1 23.6875 C-1.185625 24.55761719 -1.37125 25.42773438 -1.5625 26.32421875 C-2.06975502 28.97474138 -2.06975502 28.97474138 -2 31.59375 C-2 34.93908169 -3.0045503 37.82700409 -4 41 C-4.66 41 -5.32 41 -6 41 C-5.30258321 32.21545989 -3.87094312 23.56144584 -2.4375 14.875 C-2.20089118 13.42712918 -1.964561 11.97921279 -1.72851562 10.53125 C-1.15555158 7.0203028 -0.57883183 3.50998518 0 0 Z " fill="#025634" transform="translate(294,600)"/>
<path d="M0 0 C0.99 0.66 1.98 1.32 3 2 C2.93941406 2.59425781 2.87882813 3.18851562 2.81640625 3.80078125 C2.34658972 8.44835096 1.90219253 13.09605784 1.5 17.75 C1.03239119 22.93022887 0.35430838 27.96971173 -1 33 C-1.66 32.67 -2.32 32.34 -3 32 C-2.27018606 21.30246413 -1.15921571 10.65803178 0 0 Z " fill="#034E2F" transform="translate(809,492)"/>
<path d="M0 0 C1.15478306 3.46434919 0.82130835 5.18794715 0.22265625 8.76171875 C-0.05288086 10.43911133 -0.05288086 10.43911133 -0.33398438 12.15039062 C-0.53314453 13.31763672 -0.73230469 14.48488281 -0.9375 15.6875 C-1.13279297 16.86634766 -1.32808594 18.04519531 -1.52929688 19.25976562 C-2.01308864 22.17431603 -2.50357543 25.08757923 -3 28 C-5 26 -5 26 -5.13525391 23.66162109 C-5.08288574 22.70852051 -5.03051758 21.75541992 -4.9765625 20.7734375 C-4.925 19.7421875 -4.8734375 18.7109375 -4.8203125 17.6484375 C-4.75585938 16.56820313 -4.69140625 15.48796875 -4.625 14.375 C-4.56828125 13.28703125 -4.5115625 12.1990625 -4.453125 11.078125 C-4.3113698 8.38477613 -4.15993358 5.6923207 -4 3 C-3.34 2.67 -2.68 2.34 -2 2 C-1.34 1.34 -0.68 0.68 0 0 Z " fill="#014526" transform="translate(244,335)"/>
<path d="M0 0 C0.66 0.33 1.32 0.66 2 1 C1.67925956 2.33641852 1.34135927 3.66869885 1 5 C0.690625 6.216875 0.38125 7.43375 0.0625 8.6875 C-0.288125 9.780625 -0.63875 10.87375 -1 12 C-1.99 12.495 -1.99 12.495 -3 13 C-3.2475 13.845625 -3.495 14.69125 -3.75 15.5625 C-5.38112992 20.04810728 -8.02459648 23.31349375 -11 27 C-11.66 26.67 -12.32 26.34 -13 26 C-12.67725098 25.39003174 -12.35450195 24.78006348 -12.02197266 24.15161133 C-10.55373675 21.37326129 -9.08933573 18.59290746 -7.625 15.8125 C-7.11710938 14.85279297 -6.60921875 13.89308594 -6.0859375 12.90429688 C-5.59609375 11.97294922 -5.10625 11.04160156 -4.6015625 10.08203125 C-4.15119629 9.22843018 -3.70083008 8.3748291 -3.23681641 7.49536133 C-2.01885087 5.03803291 -0.98214335 2.55958584 0 0 Z " fill="#024A2B" transform="translate(782,603)"/>
<path d="M0 0 C0 0.66 0 1.32 0 2 C-3.96 3.98 -3.96 3.98 -8 6 C-8 5.34 -8 4.68 -8 4 C-8.804375 4.495 -9.60875 4.99 -10.4375 5.5 C-14.69484406 7.29256592 -18.42560322 7.7044571 -23 7 C-23.66 6.34 -24.32 5.68 -25 5 C-21.20906666 4.16330657 -17.41713799 3.33121508 -13.625 2.5 C-12.54476562 2.26152344 -11.46453125 2.02304687 -10.3515625 1.77734375 C-9.3203125 1.55175781 -8.2890625 1.32617188 -7.2265625 1.09375 C-6.27346191 0.88427734 -5.32036133 0.67480469 -4.33837891 0.45898438 C-2 0 -2 0 0 0 Z " fill="#025030" transform="translate(600,754)"/>
<path d="M0 0 C0.66 0.66 1.32 1.32 2 2 C1.70246994 5.7935082 0.95223608 9.16186661 -0.125 12.8125 C-1.34502543 15.86664067 -1.34502543 15.86664067 0 18 C-0.96476382 20.01723344 -1.96838392 22.01612292 -3 24 C-3.185625 24.7425 -3.37125 25.485 -3.5625 26.25 C-4 28 -4 28 -6 30 C-7.13876345 26.58370965 -6.83607123 25.676615 -5.8203125 22.32421875 C-5.55089844 21.41349609 -5.28148437 20.50277344 -5.00390625 19.56445312 C-4.71386719 18.61505859 -4.42382812 17.66566406 -4.125 16.6875 C-1.60507954 8.45142961 -1.60507954 8.45142961 0 0 Z " fill="#024A2A" transform="translate(802,541)"/>
<path d="M0 0 C0.72590332 0.14622803 1.45180664 0.29245605 2.19970703 0.44311523 C5.50793304 1.10893335 8.81646268 1.77323062 12.125 2.4375 C13.26710938 2.66759766 14.40921875 2.89769531 15.5859375 3.13476562 C16.69453125 3.35712891 17.803125 3.57949219 18.9453125 3.80859375 C19.96125488 4.01282959 20.97719727 4.21706543 22.02392578 4.42749023 C25.00900262 5.00173184 27.9995718 5.5129683 31 6 C27.723429 8.32090446 25.07711892 8.01871273 21.1953125 7.484375 C19 7 19 7 16.171875 6.0234375 C12.81786496 4.94123229 9.61114583 4.37302083 6.125 3.875 C4.97257812 3.70742188 3.82015625 3.53984375 2.6328125 3.3671875 C1.76398438 3.24601563 0.89515625 3.12484375 0 3 C0 2.01 0 1.02 0 0 Z " fill="#024B2C" transform="translate(387,749)"/>
<path d="M0 0 C-0.33 0.99 -0.66 1.98 -1 3 C-1.99 3 -2.98 3 -4 3 C-4.33 3.66 -4.66 4.32 -5 5 C-7.33333333 5.66666667 -9.66666667 6.33333333 -12 7 C-12.33 7.66 -12.66 8.32 -13 9 C-14.32148827 9.37756808 -15.65835921 9.7018576 -17 10 C-18.6744239 10.6469365 -20.34302621 11.30959426 -22 12 C-22.66 11.01 -23.32 10.02 -24 9 C-23.40461426 8.76289307 -22.80922852 8.52578613 -22.19580078 8.28149414 C-19.50517486 7.20939451 -16.81508194 6.1359638 -14.125 5.0625 C-13.18785156 4.68931641 -12.25070312 4.31613281 -11.28515625 3.93164062 C-10.38925781 3.57392578 -9.49335937 3.21621094 -8.5703125 2.84765625 C-7.32918701 2.3527771 -7.32918701 2.3527771 -6.06298828 1.84790039 C-1.566945 0 -1.566945 0 0 0 Z " fill="#024E2E" transform="translate(653,735)"/>
<path d="M0 0 C0.66 0 1.32 0 2 0 C3.01687934 3.94397128 2.90001666 6.95444703 2.22265625 10.95703125 C1.94711914 12.62475586 1.94711914 12.62475586 1.66601562 14.32617188 C1.46685547 15.47666016 1.26769531 16.62714844 1.0625 17.8125 C0.86720703 18.98232422 0.67191406 20.15214844 0.47070312 21.35742188 C-0.01163874 24.23970866 -0.50213193 27.12036156 -1 30 C-2.52270508 28.19555664 -2.52270508 28.19555664 -4 26 C-3.63671875 22.87109375 -3.63671875 22.87109375 -2.6875 19.4375 C-1.39952296 14.77831444 -1.39952296 14.77831444 -1 10 C-0.67 9.34 -0.34 8.68 0 8 C0.0689472 6.62657169 0.08467708 5.24997898 0.0625 3.875 C0.041875 2.59625 0.02125 1.3175 0 0 Z " fill="#024225" transform="translate(197,609)"/>
<path d="M0 0 C4.75 0.875 4.75 0.875 7 2 C8.71233688 1.9129796 10.42175406 1.75902838 12.125 1.5625 C13.03507812 1.46066406 13.94515625 1.35882812 14.8828125 1.25390625 C15.58148438 1.17011719 16.28015625 1.08632813 17 1 C13.65981067 3.22679289 11.1613935 3.79403872 7.25 4.625 C6.05890625 4.88539063 4.8678125 5.14578125 3.640625 5.4140625 C0.02475376 5.99601603 -3.34480192 6.10309533 -7 6 C-7 5.34 -7 4.68 -7 4 C-6.21625 3.855625 -5.4325 3.71125 -4.625 3.5625 C-2.03578982 3.12201075 -2.03578982 3.12201075 0 2 C0 1.34 0 0.68 0 0 Z " fill="#0DB883" transform="translate(196,737)"/>
<path d="M0 0 C0.93979382 3.03856659 0.99875808 5.20695472 0.44140625 8.328125 C0.30283203 9.12734375 0.16425781 9.9265625 0.02148438 10.75 C-0.12998047 11.575 -0.28144531 12.4 -0.4375 13.25 C-0.58509766 14.09046875 -0.73269531 14.9309375 -0.88476562 15.796875 C-1.2491936 17.86588544 -1.62362541 19.93312939 -2 22 C-2.66 21.67 -3.32 21.34 -4 21 C-4 18.69 -4 16.38 -4 14 C-3.34 14 -2.68 14 -2 14 C-2.33 13.13375 -2.66 12.2675 -3 11.375 C-3.98731341 8.04281725 -4.16420974 5.44840462 -4 2 C-2.68 1.34 -1.36 0.68 0 0 Z " fill="#034C2D" transform="translate(228,430)"/>
<path d="M0 0 C0.77261673 0.02361099 1.54523346 0.04722198 2.34126282 0.07154846 C4.80712765 0.14807546 7.27266971 0.23214672 9.73828125 0.31640625 C11.41079154 0.36963793 13.08331754 0.42237826 14.75585938 0.47460938 C18.85437077 0.60367572 22.95260877 0.73950833 27.05078125 0.87890625 C27.05078125 1.20890625 27.05078125 1.53890625 27.05078125 1.87890625 C22.28231884 2.07156371 17.51361276 2.25022153 12.74414062 2.41601562 C11.12225341 2.47435689 9.50049821 2.53649842 7.87890625 2.60253906 C5.54581745 2.69689192 3.21259285 2.77749511 0.87890625 2.85546875 C-0.20568878 2.90376328 -0.20568878 2.90376328 -1.31219482 2.95303345 C-5.05586984 3.06402159 -7.77669212 2.98196124 -10.94921875 0.87890625 C-7.22495694 -0.36251435 -3.86569978 -0.13932764 0 0 Z " fill="#004425" transform="translate(498.94921875,765.12109375)"/>
<path d="M0 0 C1.21415212 3.58572028 0.82194157 6.37345213 0.22265625 10.078125 C0.03896484 11.23828125 -0.14472656 12.3984375 -0.33398438 13.59375 C-0.53314453 14.8003125 -0.73230469 16.006875 -0.9375 17.25 C-1.13279297 18.47203125 -1.32808594 19.6940625 -1.52929688 20.953125 C-2.01246236 23.96996316 -2.50295588 26.98542267 -3 30 C-3.66 29.67 -4.32 29.34 -5 29 C-4.85848172 26.9163691 -4.71162064 24.83310062 -4.5625 22.75 C-4.48128906 21.58984375 -4.40007812 20.4296875 -4.31640625 19.234375 C-4.06487808 16.66319816 -3.68581497 14.4689339 -3 12 C-2.48496297 9.41676738 -1.9914543 6.83000153 -1.5 4.2421875 C-1 2 -1 2 0 0 Z " fill="#014A2A" transform="translate(234,392)"/>
<path d="M0 0 C0.33 0 0.66 0 1 0 C1.12524462 7.26418787 1.12524462 7.26418787 0.5 10.9375 C-0.38763644 16.37427322 -1.12577393 21.31133911 2 26 C2.66 25.67 3.32 25.34 4 25 C7 27 7 27 8 29 C1.53671209 28.51220469 1.53671209 28.51220469 -0.7109375 26.3671875 C-4.70555041 19.03162561 -2.00321627 7.76246303 0 0 Z " fill="#0EC28A" transform="translate(407,583)"/>
<path d="M0 0 C0.66 0 1.32 0 2 0 C1.68905914 2.54186606 1.37629464 5.08348598 1.0625 7.625 C0.97548828 8.33785156 0.88847656 9.05070312 0.79882812 9.78515625 C0.29217395 13.87591961 -0.2889043 17.93842635 -1 22 C-1.99 21.67 -2.98 21.34 -4 21 C-3.52259783 18.24968307 -3.04314736 15.49975 -2.5625 12.75 C-2.42779297 11.97269531 -2.29308594 11.19539063 -2.15429688 10.39453125 C-2.02216797 9.64042969 -1.89003906 8.88632812 -1.75390625 8.109375 C-1.63345947 7.41811523 -1.5130127 6.72685547 -1.38891602 6.01464844 C-0.99755584 3.98733883 -0.51910249 1.99805485 0 0 Z " fill="#024E2E" transform="translate(219,480)"/>
<path d="M0 0 C0.66 -0.33 1.32 -0.66 2 -1 C9.29411765 -1.35294118 9.29411765 -1.35294118 14 1 C6.41 1.99 -1.18 2.98 -9 4 C-7 0 -7 0 -5.0625 -0.8125 C-3 -1 -3 -1 0 0 Z " fill="#023B21" transform="translate(296,249)"/>
<path d="M0 0 C0.99 0.33 1.98 0.66 3 1 C2.84660156 1.53109375 2.69320313 2.0621875 2.53515625 2.609375 C1.89026738 5.49019244 1.66142013 8.30704975 1.4375 11.25 C1.35371094 12.32765625 1.26992188 13.4053125 1.18359375 14.515625 C1.12300781 15.33546875 1.06242187 16.1553125 1 17 C1.99 17.33 2.98 17.66 4 18 C2.125 18.625 2.125 18.625 0 19 C-2 17 -2 17 -2.01171875 13.84765625 C-1.90472656 12.59855469 -1.79773438 11.34945312 -1.6875 10.0625 C-1.58824219 8.81597656 -1.48898437 7.56945312 -1.38671875 6.28515625 C-1 3 -1 3 0 0 Z " fill="#035936" transform="translate(287,645)"/>
<path d="M0 0 C1.43793392 0.31049726 2.8753318 0.6234776 4.3125 0.9375 C5.11300781 1.11152344 5.91351562 1.28554688 6.73828125 1.46484375 C9.30424107 2.07198796 11.63883114 2.81941557 14 4 C14.61875 4.268125 15.2375 4.53625 15.875 4.8125 C18.36425244 6.20355283 20.06250007 7.92410722 22 10 C14.28267891 7.47191206 6.64054098 4.74972528 -1 2 C-0.67 1.34 -0.34 0.68 0 0 Z " fill="#024C2C" transform="translate(671,263)"/>
<path d="M0 0 C0.66 0.33 1.32 0.66 2 1 C2.02706445 3.89589652 2.04687029 6.79153795 2.0625 9.6875 C2.07087891 10.50412109 2.07925781 11.32074219 2.08789062 12.16210938 C2.1114912 17.99145198 1.88888182 22.80001272 -1 28 C-1.10731538 18.60394198 -0.99263429 9.35912329 0 0 Z " fill="#033C22" transform="translate(811,468)"/>
<path d="M0 0 C0.99 0.33 1.98 0.66 3 1 C4.0625 3.6875 4.0625 3.6875 5 7 C5.37125 7.99 5.7425 8.98 6.125 10 C7.04338284 13.14874118 7.15530533 15.73858803 7 19 C6.34 19.33 5.68 19.66 5 20 C4.16247839 17.04283593 3.33069969 14.084087 2.5 11.125 C2.26152344 10.28324219 2.02304687 9.44148438 1.77734375 8.57421875 C1.55175781 7.76855469 1.32617188 6.96289062 1.09375 6.1328125 C0.88427734 5.38918457 0.67480469 4.64555664 0.45898438 3.87939453 C0 2 0 2 0 0 Z " fill="#024125" transform="translate(799,391)"/>
<path d="M0 0 C0 0.99 0 1.98 0 3 C-2.94226752 5.6153489 -6.96883555 9 -11 9 C-11.33 9.66 -11.66 10.32 -12 11 C-12.99 11.33 -13.98 11.66 -15 12 C-15.33 11.01 -15.66 10.02 -16 9 C-10.72 6.03 -5.44 3.06 0 0 Z " fill="#024C2D" transform="translate(681,719)"/>
<path d="M0 0 C9.05054166 -0.50803456 17.2350735 1.01281019 26 3 C26 3.33 26 3.66 26 4 C24.83082031 3.9278125 23.66164063 3.855625 22.45703125 3.78125 C20.90885893 3.68742137 19.36068158 3.59367575 17.8125 3.5 C17.04357422 3.45230469 16.27464844 3.40460938 15.48242188 3.35546875 C11.648496 3.12510411 7.84309823 2.9383872 4 3 C4 2.34 4 1.68 4 1 C2.68 0.67 1.36 0.34 0 0 Z " fill="#0DC990" transform="translate(611,253)"/>
<path d="M0 0 C0.33 0.99 0.66 1.98 1 3 C0.21625 3.4125 -0.5675 3.825 -1.375 4.25 C-4.16890317 6.11260211 -4.59682382 7.10010256 -6 10 C-6.61875 10.28875 -7.2375 10.5775 -7.875 10.875 C-10.97886464 12.51822246 -12.20693774 15.05425485 -14 18 C-14.33 17.34 -14.66 16.68 -15 16 C-5.66197183 2.83098592 -5.66197183 2.83098592 0 0 Z " fill="#0EC28A" transform="translate(274,259)"/>
<path d="M0 0 C-2.97453412 0.99362773 -5.95530815 1.96712186 -8.9375 2.9375 C-9.76830078 3.21529297 -10.59910156 3.49308594 -11.45507812 3.77929688 C-17.00714017 5.57237528 -22.18158588 6.53617082 -28 7 C-25 5 -25 5 -21 5 C-21 4.34 -21 3.68 -21 3 C-20.28714844 2.87882813 -19.57429687 2.75765625 -18.83984375 2.6328125 C-12.3529412 1.50834577 -12.3529412 1.50834577 -6 -0.1875 C-3 -1 -3 -1 0 0 Z " fill="#0FC48C" transform="translate(617,749)"/>
<path d="M0 0 C0 0.33 0 0.66 0 1 C-0.58007812 1.04898438 -1.16015625 1.09796875 -1.7578125 1.1484375 C-5.5051208 1.50709077 -8.7845647 1.92818823 -12.375 3.125 C-15 4 -15 4 -18 3 C-18 2.34 -18 1.68 -18 1 C-15.51573284 -0.24213358 -13.45252329 -0.36308981 -10.6875 -0.625 C-9.27017578 -0.76808594 -9.27017578 -0.76808594 -7.82421875 -0.9140625 C-5.03091643 -0.99905925 -2.70574224 -0.66041796 0 0 Z " fill="#024729" transform="translate(554,764)"/>
<path d="M0 0 C0.33 0 0.66 0 1 0 C2.26618705 7.5971223 2.26618705 7.5971223 0 12 C-0.43473339 14.07169246 -0.80654223 16.15727751 -1.125 18.25 C-1.29257813 19.32765625 -1.46015625 20.4053125 -1.6328125 21.515625 C-1.75398437 22.33546875 -1.87515625 23.1553125 -2 24 C-2.33 24 -2.66 24 -3 24 C-3.43630637 15.71017896 -1.77967263 8.04030671 0 0 Z " fill="#0CC087" transform="translate(217,505)"/>
<path d="M0 0 C0 0.33 0 0.66 0 1 C-2.54126172 1.19617816 -5.08260459 1.38217248 -7.625 1.5625 C-8.33785156 1.61857422 -9.05070313 1.67464844 -9.78515625 1.73242188 C-14.03668104 2.02495798 -17.79456347 1.89547939 -22 1 C-22 0.67 -22 0.34 -22 0 C-14.4568898 -1.25718503 -7.5431102 -1.25718503 0 0 Z " fill="#044528" transform="translate(254,735)"/>
<path d="M0 0 C2.9375 0.8125 2.9375 0.8125 6 2 C6.33 2.99 6.66 3.98 7 5 C7.763125 5.103125 8.52625 5.20625 9.3125 5.3125 C12.17059424 6.04364039 13.15742885 6.76951913 15 9 C14.67 9.99 14.34 10.98 14 12 C11.66083869 10.38287572 9.32878299 8.75694638 7 7.125 C6.33226562 6.66480469 5.66453125 6.20460938 4.9765625 5.73046875 C3.28140649 4.53694054 1.6362422 3.27309661 0 2 C0 1.34 0 0.68 0 0 Z " fill="#024527" transform="translate(718,285)"/>
<path d="M0 0 C0.33 0.66 0.66 1.32 1 2 C0.57847656 2.60328125 0.15695312 3.2065625 -0.27734375 3.828125 C-1.09912109 5.02695312 -1.09912109 5.02695312 -1.9375 6.25 C-2.75541016 7.43335938 -2.75541016 7.43335938 -3.58984375 8.640625 C-4.90887099 10.8475293 -5.49467 12.51058485 -6 15 C-6.33 15.66 -6.66 16.32 -7 17 C-9.0625 17.625 -9.0625 17.625 -11 18 C-9.48103632 13.56829827 -7.07360191 9.96975924 -4.375 6.1875 C-3.95476563 5.59001953 -3.53453125 4.99253906 -3.1015625 4.37695312 C-2.07220272 2.91479435 -1.0367177 1.45695101 0 0 Z " fill="#0BC188" transform="translate(676,599)"/>
<path d="M0 0 C1.703125 0.12109375 1.703125 0.12109375 4 1 C5.72894698 2.99515901 7.24257501 4.91429664 8.75 7.0625 C9.16121094 7.63033203 9.57242188 8.19816406 9.99609375 8.78320312 C11.00695036 10.18194657 12.00477206 11.59009375 13 13 C12.34 13.66 11.68 14.32 11 15 C9.16374012 12.68977044 7.33088988 10.37697874 5.5 8.0625 C4.71302734 7.0734668 4.71302734 7.0734668 3.91015625 6.06445312 C0 1.11328125 0 1.11328125 0 0 Z " fill="#024124" transform="translate(761,323)"/>
<path d="M0 0 C1.20272819 2.40545638 1.10071472 3.94996953 1.0625 6.625 C1.05347656 7.44226563 1.04445313 8.25953125 1.03515625 9.1015625 C1.02355469 9.72804688 1.01195312 10.35453125 1 11 C0.34 11 -0.32 11 -1 11 C-1.66 13.97 -2.32 16.94 -3 20 C-3.33 20 -3.66 20 -4 20 C-3.64999003 12.75841435 -2.94397591 6.65594553 0 0 Z " fill="#0EBE89" transform="translate(255,286)"/>
<path d="M0 0 C0.66 0 1.32 0 2 0 C1.47462276 5.0302076 0.89405214 10.01885239 0 15 C-2.55192629 13.72403685 -2.99500868 12.62843884 -4 10 C-3.67 9.01 -3.34 8.02 -3 7 C-2.34 6.67 -1.68 6.34 -1 6 C-1.020625 5.195625 -1.04125 4.39125 -1.0625 3.5625 C-1 1 -1 1 0 0 Z " fill="#024A2B" transform="translate(238,365)"/>
<path d="M0 0 C2.03833424 1.2739589 4.03852126 2.61061923 6 4 C6 4.66 6 5.32 6 6 C6.99 6.33 7.98 6.66 9 7 C11.42638194 9.03816083 12.70989008 11.12206249 14 14 C13.01 14.495 13.01 14.495 12 15 C11.55269531 14.48050781 11.10539063 13.96101563 10.64453125 13.42578125 C6.49728023 8.64019924 6.49728023 8.64019924 2.0625 4.125 C0 2 0 2 0 0 Z " fill="#013D21" transform="translate(746,306)"/>
<path d="M0 0 C0.66 0.33 1.32 0.66 2 1 C1.34 5.95 0.68 10.9 0 16 C-0.33 15.34 -0.66 14.68 -1 14 C-1.66 13.67 -2.32 13.34 -3 13 C-2.67 12.34 -2.34 11.68 -2 11 C-1.68954474 8.40856095 -1.49026088 5.81628268 -1.28125 3.21484375 C-1 1 -1 1 0 0 Z " fill="#024326" transform="translate(247,312)"/>
<path d="M0 0 C3.63 0.66 7.26 1.32 11 2 C11 3.65 11 5.3 11 7 C7.21472479 6.48847632 5.55891312 5.79154158 3 3 C2.01 2.67 1.02 2.34 0 2 C0 1.34 0 0.68 0 0 Z " fill="#035030" transform="translate(374,746)"/>
<path d="M0 0 C0.33 0 0.66 0 1 0 C0.98839844 0.69867188 0.97679687 1.39734375 0.96484375 2.1171875 C0.95582031 3.02726562 0.94679687 3.93734375 0.9375 4.875 C0.92589844 5.77992188 0.91429687 6.68484375 0.90234375 7.6171875 C0.83750743 10.0168585 0.83750743 10.0168585 2 12 C1.67 12.66 1.34 13.32 1 14 C0.34 14 -0.32 14 -1 14 C-1 15.65 -1 17.3 -1 19 C-1.33 19 -1.66 19 -2 19 C-2.21432579 12.35590042 -1.51233701 6.46794133 0 0 Z " fill="#0BC188" transform="translate(221,480)"/>
<path d="M0 0 C0.99 0.495 0.99 0.495 2 1 C3.33350067 5.44500224 4.29175731 9.3318831 4 14 C3.34 12.68 2.68 11.36 2 10 C1.34 10 0.68 10 0 10 C0 6.7 0 3.4 0 0 Z " fill="#0BC087" transform="translate(800,398)"/>
<path d="M0 0 C1.485 0.99 1.485 0.99 3 2 C3.51171875 4.6015625 3.51171875 4.6015625 3.6875 7.625 C3.75324219 8.62789063 3.81898438 9.63078125 3.88671875 10.6640625 C3.92410156 11.43492187 3.96148437 12.20578125 4 13 C2.66666667 13 1.33333333 13 0 13 C0 8.71 0 4.42 0 0 Z " fill="#045133" transform="translate(349,256)"/>
<path d="M0 0 C0.66 0 1.32 0 2 0 C2 0.66 2 1.32 2 2 C2.60328125 2.04898437 3.2065625 2.09796875 3.828125 2.1484375 C4.62734375 2.22320312 5.4265625 2.29796875 6.25 2.375 C7.03890625 2.44460938 7.8278125 2.51421875 8.640625 2.5859375 C11.085877 3.01507113 12.84836903 3.78600638 15 5 C15 5.66 15 6.32 15 7 C9.72 5.68 4.44 4.36 -1 3 C-0.67 2.01 -0.34 1.02 0 0 Z " fill="#014E2E" transform="translate(654,257)"/>
<path d="M0 0 C0 3 0 3 -2.1875 5.625 C-5.00654002 8.00552268 -6.39755548 8.69121904 -10 9 C-8.77946141 5.33838422 -7.63217696 4.83729526 -4.4375 2.8125 C-3.61121094 2.28269531 -2.78492188 1.75289062 -1.93359375 1.20703125 C-1.29550781 0.80871094 -0.65742187 0.41039062 0 0 Z " fill="#024B2C" transform="translate(693,711)"/>
<path d="M0 0 C0.33 0 0.66 0 1 0 C1.21824777 6.0018137 0.5056904 11.19233704 -1 17 C-1.33 17 -1.66 17 -2 17 C-3.31281522 10.43592388 -2.52653315 6.16645379 0 0 Z " fill="#0ABF86" transform="translate(324,409)"/>
<path d="M0 0 C3 1 3 1 4.0625 2.75 C4.74250479 4.3820115 5.38343445 6.03048009 6 7.6875 C6.77234179 10.15427599 6.77234179 10.15427599 9 11 C7.68 11 6.36 11 5 11 C3.515625 9.35546875 3.515625 9.35546875 2.25 7.1875 C1.82203125 6.47980469 1.3940625 5.77210938 0.953125 5.04296875 C0 3 0 3 0 0 Z " fill="#024024" transform="translate(774,338)"/>
<path d="M0 0 C-3.2678206 2.17854707 -6.38058265 3.49760034 -10 5 C-10 4.34 -10 3.68 -10 3 C-11.32 2.67 -12.64 2.34 -14 2 C-9.15758367 0.66416101 -5.06562383 -0.25328119 0 0 Z " fill="#0ABE86" transform="translate(562,683)"/>
<path d="M0 0 C2 2 2 2 2.1953125 4.8203125 C2.16050781 6.45613281 2.16050781 6.45613281 2.125 8.125 C2.10695313 9.22070312 2.08890625 10.31640625 2.0703125 11.4453125 C2.04710937 12.28835938 2.02390625 13.13140625 2 14 C1.01 14.495 1.01 14.495 0 15 C-1.14229879 11.57310364 -0.90861076 9.38897782 -0.5625 5.8125 C-0.46066406 4.72582031 -0.35882812 3.63914062 -0.25390625 2.51953125 C-0.17011719 1.68808594 -0.08632813 0.85664063 0 0 Z " fill="#08BB83" transform="translate(808,442)"/>
<path d="M0 0 C0.99 0.33 1.98 0.66 3 1 C-0.63 4.63 -4.26 8.26 -8 12 C-8.33 11.01 -8.66 10.02 -9 9 C-7.6078125 7.88625 -7.6078125 7.88625 -6.1875 6.75 C-3.72873042 4.70974439 -1.78352451 2.67528677 0 0 Z " fill="#015331" transform="translate(651,629)"/>
<path d="M0 0 C1.09898702 3.29696105 0.87124444 4.40494903 0.0625 7.6875 C-0.22947266 8.89986328 -0.22947266 8.89986328 -0.52734375 10.13671875 C-0.68332031 10.75160156 -0.83929688 11.36648438 -1 12 C-1.33 12 -1.66 12 -2 12 C-2.66 9.03 -3.32 6.06 -4 3 C-3.34 2.67 -2.68 2.34 -2 2 C-1.34 1.34 -0.68 0.68 0 0 Z " fill="#034023" transform="translate(244,335)"/>
<path d="M0 0 C0.33 0 0.66 0 1 0 C1.05441656 1.89551022 1.09298035 3.7914792 1.125 5.6875 C1.14820313 6.74324219 1.17140625 7.79898437 1.1953125 8.88671875 C0.99858729 12.02251859 0.33057654 14.17645373 -1 17 C-1.33 17 -1.66 17 -2 17 C-2.25287193 10.93107371 -1.69832609 5.83799592 0 0 Z " fill="#10C089" transform="translate(247,324)"/>
<path d="M0 0 C0.66 0.33 1.32 0.66 2 1 C-0.97 5.95 -0.97 5.95 -4 11 C-4.66 10.67 -5.32 10.34 -6 10 C-5.58578031 5.16743695 -3.53586014 3.17320782 0 0 Z " fill="#02351B" transform="translate(262,268)"/>
<path d="M0 0 C4.69023454 0.56606279 9.34500026 1.18537505 14 2 C13.01 2.495 13.01 2.495 12 3 C11.67 3.66 11.34 4.32 11 5 C9.9275 4.690625 8.855 4.38125 7.75 4.0625 C5.17133778 3.33187904 2.60487898 2.62517096 0 2 C0 1.34 0 0.68 0 0 Z " fill="#015231" transform="translate(340,739)"/>
<path d="M0 0 C0.99 0.33 1.98 0.66 3 1 C-2.445 4.96 -2.445 4.96 -8 9 C-8.33 8.01 -8.66 7.02 -9 6 C-7.57140593 4.96674014 -6.13177617 3.94872366 -4.6875 2.9375 C-3.88699219 2.36902344 -3.08648438 1.80054688 -2.26171875 1.21484375 C-1.51535156 0.81394531 -0.76898437 0.41304687 0 0 Z " fill="#015533" transform="translate(632,647)"/>
<path d="M0 0 C0.33 0 0.66 0 1 0 C1.33 2.97 1.66 5.94 2 9 C1.01 9.66 0.02 10.32 -1 11 C-2.25 3.375 -2.25 3.375 0 0 Z " fill="#045234" transform="translate(210,531)"/>
<path d="M0 0 C0.33 0 0.66 0 1 0 C2.80789124 6.08108873 0.83657235 11.16862339 -1 17 C-1.33 17 -1.66 17 -2 17 C-2.21824777 10.9981863 -1.5056904 5.80766296 0 0 Z " fill="#005431" transform="translate(517,480)"/>
<path d="M0 0 C2 3 2 3 2 6 C1.34 6 0.68 6 0 6 C-0.33 9.3 -0.66 12.6 -1 16 C-1.33 16 -1.66 16 -2 16 C-2.20674944 10.21101581 -1.59162079 5.57067277 0 0 Z " fill="#0ABF87" transform="translate(427,460)"/>
<path d="M0 0 C1.49080078 0.16628906 1.49080078 0.16628906 3.01171875 0.3359375 C3.77097656 0.43132813 4.53023438 0.52671875 5.3125 0.625 C1.7638865 2.99074234 0.7360475 2.73365265 -3.375 2.25 C-4.86580078 2.08371094 -4.86580078 2.08371094 -6.38671875 1.9140625 C-7.14597656 1.81867187 -7.90523438 1.72328125 -8.6875 1.625 C-5.1388865 -0.74074234 -4.1110475 -0.48365265 0 0 Z " fill="#025331" transform="translate(476.6875,685.375)"/>
<path d="M0 0 C0.66 0 1.32 0 2 0 C1.67 3.3 1.34 6.6 1 10 C0.01 10 -0.98 10 -2 10 C-1.34 6.7 -0.68 3.4 0 0 Z " fill="#024226" transform="translate(190,660)"/>
<path d="M0 0 C0 0.99 0 1.98 0 3 C-1.28650706 3.69710731 -2.57940665 4.38242876 -3.875 5.0625 C-4.95394531 5.63677734 -4.95394531 5.63677734 -6.0546875 6.22265625 C-6.69664062 6.47917969 -7.33859375 6.73570312 -8 7 C-8.66 6.67 -9.32 6.34 -10 6 C-8.71283353 4.99421411 -7.42011342 3.99553202 -6.125 3 C-5.40570312 2.443125 -4.68640625 1.88625 -3.9453125 1.3125 C-2 0 -2 0 0 0 Z " fill="#09C086" transform="translate(630,652)"/>
<path d="M0 0 C0.66 0 1.32 0 2 0 C1.67 3.3 1.34 6.6 1 10 C-2 6 -2 6 -2 2 C-1.34 2 -0.68 2 0 2 C0 1.34 0 0.68 0 0 Z " fill="#024C2E" transform="translate(201,592)"/>
<path d="M0 0 C0.99 0 1.98 0 3 0 C2.67 2.97 2.34 5.94 2 9 C1.34 8.67 0.68 8.34 0 8 C-1.27536232 2.55072464 -1.27536232 2.55072464 0 0 Z " fill="#02391F" transform="translate(186,679)"/>
<path d="M0 0 C3.86648272 1.04097612 7.49461443 2.03698408 11 4 C7.30458414 4.95024979 4.69541586 4.95024979 1 4 C0.67 2.68 0.34 1.36 0 0 Z " fill="#035635" transform="translate(627,251)"/>
<path d="M0 0 C1.21816406 0.03480469 1.21816406 0.03480469 2.4609375 0.0703125 C3.68683594 0.09738281 3.68683594 0.09738281 4.9375 0.125 C5.87722656 0.15980469 5.87722656 0.15980469 6.8359375 0.1953125 C3.60857238 2.34688925 2.00863003 3.38621594 -1.8515625 2.7578125 C-2.99625 2.479375 -2.99625 2.479375 -4.1640625 2.1953125 C-2.1640625 0.1953125 -2.1640625 0.1953125 0 0 Z M-2.1640625 3.1953125 C-1.1740625 3.5253125 -0.1840625 3.8553125 0.8359375 4.1953125 C-0.1540625 4.5253125 -1.1440625 4.8553125 -2.1640625 5.1953125 C-2.1640625 4.5353125 -2.1640625 3.8753125 -2.1640625 3.1953125 Z " fill="#0CBF87" transform="translate(295.1640625,250.8046875)"/>
<path d="M0 0 C0.90105469 0.11085938 1.80210937 0.22171875 2.73046875 0.3359375 C3.76107422 0.47902344 3.76107422 0.47902344 4.8125 0.625 C1.8125 2.625 1.8125 2.625 -0.375 2.25 C-0.973125 2.04375 -1.57125 1.8375 -2.1875 1.625 C-2.5175 2.285 -2.8475 2.945 -3.1875 3.625 C-5.6625 2.635 -5.6625 2.635 -8.1875 1.625 C-4.73535147 -0.67643236 -3.95270676 -0.51333854 0 0 Z " fill="#02502F" transform="translate(435.1875,758.375)"/>
<path d="M0 0 C0.99 0.33 1.98 0.66 3 1 C1.68139111 5.61513112 -0.21355437 9.09897612 -3 13 C-3.33 12.34 -3.66 11.68 -4 11 C-3.22265625 9.16015625 -3.22265625 9.16015625 -2.0625 7.0625 C-0.5451154 4.31063302 0 3.22211537 0 0 Z " fill="#0EC38B" transform="translate(769,622)"/>
<path d="M0 0 C4.62 0 9.24 0 14 0 C13.67 0.99 13.34 1.98 13 3 C11.35 3 9.7 3 8 3 C8 2.67 8 2.34 8 2 C5.36 1.67 2.72 1.34 0 1 C0 0.67 0 0.34 0 0 Z " fill="#01633E" transform="translate(415,613)"/>
<path d="M0 0 C2.71653543 5.07086614 2.71653543 5.07086614 3 8 C1.51171875 9.62109375 1.51171875 9.62109375 0 11 C-0.19491452 9.54263913 -0.38069358 8.08405407 -0.5625 6.625 C-0.66691406 5.81289063 -0.77132812 5.00078125 -0.87890625 4.1640625 C-1 2 -1 2 0 0 Z " fill="#024227" transform="translate(808,423)"/>
<path d="M0 0 C1.485 0.99 1.485 0.99 3 2 C2.25 6.75 2.25 6.75 0 9 C-0.87890625 2.84765625 -0.87890625 2.84765625 -1 1 C-0.67 0.67 -0.34 0.34 0 0 Z " fill="#034A2C" transform="translate(806,413)"/>
<path d="M0 0 C0.66 0 1.32 0 2 0 C2.69710731 1.28650706 3.38242876 2.57940665 4.0625 3.875 C4.63677734 4.95394531 4.63677734 4.95394531 5.22265625 6.0546875 C5.47917969 6.69664062 5.73570312 7.33859375 6 8 C5.67 8.66 5.34 9.32 5 10 C4.34 10 3.68 10 3 10 C2.01 6.7 1.02 3.4 0 0 Z " fill="#034427" transform="translate(795,380)"/>
<path d="M0 0 C-1.0975223 2.99324263 -1.67682892 3.84610901 -4.625 5.25 C-5.40875 5.4975 -6.1925 5.745 -7 6 C-7.33 5.01 -7.66 4.02 -8 3 C-2.25 0 -2.25 0 0 0 Z " fill="#035231" transform="translate(661,731)"/>
<path d="M0 0 C-0.99 1.485 -0.99 1.485 -2 3 C-5.63 2.67 -9.26 2.34 -13 2 C-13 1.67 -13 1.34 -13 1 C-8.61414671 0.29826347 -4.44209357 -0.10834375 0 0 Z " fill="#015231" transform="translate(442,612)"/>
<path d="M0 0 C-1.2608012 1.03319813 -2.53403258 2.05124379 -3.8125 3.0625 C-4.87404297 3.91521484 -4.87404297 3.91521484 -5.95703125 4.78515625 C-6.63121094 5.18605469 -7.30539062 5.58695313 -8 6 C-8.99 5.67 -9.98 5.34 -11 5 C-9.35 4.34 -7.7 3.68 -6 3 C-6 2.01 -6 1.02 -6 0 C-2.25 -1.125 -2.25 -1.125 0 0 Z " fill="#0CC089" transform="translate(474,597)"/>
<path d="M0 0 C0.66 0.66 1.32 1.32 2 2 C1.9765625 4.3828125 1.9765625 4.3828125 1.625 7.125 C1.51414063 8.03507812 1.40328125 8.94515625 1.2890625 9.8828125 C1.19367188 10.58148437 1.09828125 11.28015625 1 12 C-1.23551759 8.64672361 -1.17283528 8.09256343 -0.625 4.3125 C-0.51414063 3.50425781 -0.40328125 2.69601562 -0.2890625 1.86328125 C-0.19367188 1.24839844 -0.09828125 0.63351562 0 0 Z " fill="#025131" transform="translate(215,503)"/>
<path d="M0 0 C0.33 0 0.66 0 1 0 C1.19477739 1.62414378 1.38059458 3.24936423 1.5625 4.875 C1.66691406 5.77992188 1.77132812 6.68484375 1.87890625 7.6171875 C2 10 2 10 1 12 C0.34 12 -0.32 12 -1 12 C-0.67 8.04 -0.34 4.08 0 0 Z " fill="#02633F" transform="translate(520,456)"/>
<path d="M0 0 C3.94139078 1.66751148 6.7892812 4.22710649 10 7 C9.01 7 8.02 7 7 7 C6.34 6.34 5.68 5.68 5 5 C4.01 5 3.02 5 2 5 C1.34 3.35 0.68 1.7 0 0 Z " fill="#0DC48D" transform="translate(734,299)"/>
<path d="M0 0 C-1.32 0.99 -2.64 1.98 -4 3 C-4.33 2.34 -4.66 1.68 -5 1 C-6.65 1.33 -8.3 1.66 -10 2 C-10 1.34 -10 0.68 -10 0 C-6.30581799 -1.231394 -3.7943739 -0.64432764 0 0 Z " fill="#045031" transform="translate(427,757)"/>
<path d="M0 0 C9.41002278 -0.18451025 9.41002278 -0.18451025 14 1 C14 1.33 14 1.66 14 2 C12.02 2 10.04 2 8 2 C7.67 2.99 7.34 3.98 7 5 C6.67 4.01 6.34 3.02 6 2 C3.03 1.505 3.03 1.505 0 1 C0 0.67 0 0.34 0 0 Z " fill="#0FC18A" transform="translate(337,667)"/>
<path d="M0 0 C0.33 0 0.66 0 1 0 C1.33 2.97 1.66 5.94 2 9 C1.01 9.66 0.02 10.32 -1 11 C-1.0270043 9.54176788 -1.04639787 8.08339325 -1.0625 6.625 C-1.07410156 5.81289063 -1.08570313 5.00078125 -1.09765625 4.1640625 C-1 2 -1 2 0 0 Z " fill="#054D30" transform="translate(241,342)"/>
<path d="M0 0 C0.99 0.33 1.98 0.66 3 1 C2.67 3.64 2.34 6.28 2 9 C1.34 8.67 0.68 8.34 0 8 C-1.27536232 2.55072464 -1.27536232 2.55072464 0 0 Z " fill="#013C20" transform="translate(248,300)"/>
<path d="M0 0 C3.63 0 7.26 0 11 0 C10.01 1.485 10.01 1.485 9 3 C6.375 3.1875 6.375 3.1875 4 3 C4 2.34 4 1.68 4 1 C2.68 0.67 1.36 0.34 0 0 Z " fill="#0ABF86" transform="translate(611,253)"/>
<path d="M0 0 C-2.5654594 2.5654594 -4.47686668 2.54046087 -8 3 C-8.33 2.01 -8.66 1.02 -9 0 C-5.62182575 -0.84454356 -3.32534757 -1.10844919 0 0 Z " fill="#033D22" transform="translate(214,740)"/>
<path d="M0 0 C0.99 0.66 1.98 1.32 3 2 C1.68 4.31 0.36 6.62 -1 9 C-1.66 9 -2.32 9 -3 9 C-2.01 6.03 -1.02 3.06 0 0 Z " fill="#014E2E" transform="translate(787,591)"/>
<path d="M0 0 C2.31 0.66 4.62 1.32 7 2 C6.67 2.99 6.34 3.98 6 5 C3.69 4.01 1.38 3.02 -1 2 C-0.67 1.34 -0.34 0.68 0 0 Z " fill="#024C2D" transform="translate(694,272)"/>
<path d="M0 0 C-3.1964086 1.06546953 -5.65747276 1.07427838 -9 1 C-9 0.34 -9 -0.32 -9 -1 C-5.22102349 -2.0497157 -3.35080929 -2.10976881 0 0 Z " fill="#01381E" transform="translate(230,738)"/>
<path d="M0 0 C0.66 0.66 1.32 1.32 2 2 C1.625 4.625 1.625 4.625 1 7 C0.01 7.33 -0.98 7.66 -2 8 C-1.34 5.36 -0.68 2.72 0 0 Z " fill="#025533" transform="translate(793,574)"/>
<path d="M0 0 C2 2 2 2 2 5 C2.66 5.33 3.32 5.66 4 6 C3.34 6 2.68 6 2 6 C1.67 6.99 1.34 7.98 1 9 C0.34 8.34 -0.32 7.68 -1 7 C-0.625 3.375 -0.625 3.375 0 0 Z " fill="#024B2C" transform="translate(804,531)"/>
<path d="M0 0 C0.99 1.32 1.98 2.64 3 4 C2.1875 7.25 2.1875 7.25 1 10 C0.34 10 -0.32 10 -1 10 C-0.67 6.7 -0.34 3.4 0 0 Z " fill="#01643E" transform="translate(309,507)"/>
<path d="M0 0 C-0.99 1.485 -0.99 1.485 -2 3 C-2.99 3 -3.98 3 -5 3 C-5.99 3.495 -5.99 3.495 -7 4 C-7 2.68 -7 1.36 -7 0 C-3.98968256 -0.93423645 -3.13349732 -1.04449911 0 0 Z " fill="#025030" transform="translate(608,753)"/>
<path d="M0 0 C2.31 0 4.62 0 7 0 C6 2 6 2 4.15234375 2.6328125 C3.42144531 2.79523437 2.69054687 2.95765625 1.9375 3.125 C0.83728516 3.37636719 0.83728516 3.37636719 -0.28515625 3.6328125 C-0.85105469 3.75398437 -1.41695312 3.87515625 -2 4 C-1.34 2.68 -0.68 1.36 0 0 Z " fill="#0DC289" transform="translate(634,739)"/>
<path d="M0 0 C1.2380014 3.57644848 0.74926071 6.33694766 0 10 C-2 7 -2 7 -1.6875 3.875 C-1 1 -1 1 0 0 Z " fill="#024527" transform="translate(194,641)"/>
</svg>
